<svg version="1.1" viewBox="0.0 0.0 407.5853018372703 369.2309711286089" fill="none" stroke="none" stroke-linecap="square" stroke-miterlimit="10" xmlns:xlink="http://www.w3.org/1999/xlink" xmlns="http://www.w3.org/2000/svg"><clipPath id="p.0"><path d="m0 0l407.5853 0l0 369.23096l-407.5853 0l0 -369.23096z" clip-rule="nonzero"/></clipPath><g clip-path="url(#p.0)"><path fill="#000000" fill-opacity="0.0" d="m0 0l407.5853 0l0 369.23096l-407.5853 0z" fill-rule="evenodd"/><path fill="#ffffff" d="m-3.703412 -2.3569553l414.99213 0l0 375.62207l-414.99213 0z" fill-rule="evenodd"/><path stroke="#ffffff" stroke-width="1.0" stroke-linejoin="round" stroke-linecap="butt" d="m-3.703412 -2.3569553l414.99213 0l0 375.62207l-414.99213 0z" fill-rule="evenodd"/><path fill="#649d66" d="m51.74147 58.97638l39.622047 0l0 39.622047l-39.622047 0z" fill-rule="evenodd"/><path stroke="#000000" stroke-width="1.0" stroke-linejoin="round" stroke-linecap="butt" d="m51.74147 58.97638l39.622047 0l0 39.622047l-39.622047 0z" fill-rule="evenodd"/><path fill="#ffffff" d="m73.78906 85.7074l0 -1.125q-1.6875 1.4375 -3.625 1.4375q-1.40625 0 -2.1875 -0.703125q-0.78125 -0.71875 -0.78125 -1.75q0 -1.140625 1.03125 -1.984375q1.046875 -0.84375 3.03125 -0.84375q0.546875 0 1.171875 0.078125q0.625 0.0625 1.359375 0.21875l0 -1.265625q0 -0.640625 -0.59375 -1.109375q-0.59375 -0.484375 -1.78125 -0.484375q-0.90625 0 -2.546875 0.53125q-0.296875 0.09375 -0.375 0.09375q-0.15625 0 -0.265625 -0.109375q-0.109375 -0.109375 -0.109375 -0.28125q0 -0.15625 0.09375 -0.25q0.140625 -0.140625 1.0625 -0.375q1.4375 -0.390625 2.1875 -0.390625q1.46875 0 2.296875 0.734375q0.828125 0.71875 0.828125 1.640625l0 5.15625l1.03125 0q0.296875 0 0.40625 0.109375q0.125 0.109375 0.125 0.28125q0 0.171875 -0.125 0.28125q-0.109375 0.109375 -0.40625 0.109375l-1.828125 0zm0 -3.875q-0.546875 -0.15625 -1.15625 -0.234375q-0.609375 -0.078125 -1.28125 -0.078125q-1.703125 0 -2.65625 0.734375q-0.734375 0.546875 -0.734375 1.3125q0 0.703125 0.546875 1.1875q0.5625 0.484375 1.625 0.484375q1.0 0 1.859375 -0.40625q0.875 -0.40625 1.796875 -1.28125l0 -1.71875z" fill-rule="nonzero"/><path fill="#649d66" d="m91.36352 58.97638l39.622047 0l0 39.622047l-39.622047 0z" fill-rule="evenodd"/><path stroke="#000000" stroke-width="1.0" stroke-linejoin="round" stroke-linecap="butt" d="m91.36352 58.97638l39.622047 0l0 39.622047l-39.622047 0z" fill-rule="evenodd"/><path fill="#ffffff" d="m114.989235 74.06677l0 10.859375l1.046875 0q0.28125 0 0.40625 0.109375q0.125 0.109375 0.125 0.28125q0 0.171875 -0.125 0.28125q-0.125 0.109375 -0.40625 0.109375l-1.828125 0l0 -1.546875q-1.359375 1.859375 -3.453125 1.859375q-1.046875 0 -2.015625 -0.5625q-0.96875 -0.5625 -1.53125 -1.59375q-0.5625 -1.046875 -0.5625 -2.15625q0 -1.109375 0.5625 -2.140625q0.5625 -1.046875 1.53125 -1.609375q0.96875 -0.5625 2.03125 -0.5625q2.046875 0 3.4375 1.859375l0 -4.40625l-1.046875 0q-0.28125 0 -0.40625 -0.109375q-0.125 -0.109375 -0.125 -0.28125q0 -0.171875 0.125 -0.28125q0.125 -0.109375 0.40625 -0.109375l1.828125 0zm-0.78125 7.640625q0 -1.484375 -1.015625 -2.5q-1.0 -1.03125 -2.375 -1.03125q-1.390625 0 -2.390625 1.03125q-1.0 1.015625 -1.0 2.5q0 1.46875 1.0 2.5q1.0 1.03125 2.390625 1.03125q1.375 0 2.375 -1.03125q1.015625 -1.03125 1.015625 -2.5z" fill-rule="nonzero"/><path fill="#649d66" d="m130.98557 58.97638l39.62204 0l0 39.622047l-39.62204 0z" fill-rule="evenodd"/><path stroke="#000000" stroke-width="1.0" stroke-linejoin="round" stroke-linecap="butt" d="m130.98557 58.97638l39.62204 0l0 39.622047l-39.62204 0z" fill-rule="evenodd"/><path fill="#ffffff" d="m155.01753 81.87927l-7.953125 0q0.21875 1.515625 1.28125 2.4375q1.0625 0.921875 2.625 0.921875q0.875 0 1.828125 -0.28125q0.953125 -0.296875 1.5625 -0.765625q0.171875 -0.140625 0.296875 -0.140625q0.15625 0 0.265625 0.125q0.109375 0.109375 0.109375 0.265625q0 0.15625 -0.15625 0.296875q-0.4375 0.46875 -1.578125 0.875q-1.140625 0.40625 -2.328125 0.40625q-2.0 0 -3.34375 -1.3125q-1.34375 -1.3125 -1.34375 -3.1875q0 -1.6875 1.25 -2.90625q1.265625 -1.21875 3.125 -1.21875q1.90625 0 3.140625 1.25q1.234375 1.25 1.21875 3.234375zm-0.796875 -0.796875q-0.234375 -1.28125 -1.21875 -2.09375q-0.984375 -0.8125 -2.34375 -0.8125q-1.375 0 -2.359375 0.8125q-0.96875 0.796875 -1.21875 2.09375l7.140625 0z" fill-rule="nonzero"/><path fill="#649d66" d="m170.6076 58.97638l39.622055 0l0 39.622047l-39.622055 0z" fill-rule="evenodd"/><path stroke="#000000" stroke-width="1.0" stroke-linejoin="round" stroke-linecap="butt" d="m170.6076 58.97638l39.622055 0l0 39.622047l-39.622055 0z" fill-rule="evenodd"/><path fill="#649d66" d="m210.22966 58.97638l39.62204 0l0 39.622047l-39.62204 0z" fill-rule="evenodd"/><path stroke="#000000" stroke-width="1.0" stroke-linejoin="round" stroke-linecap="butt" d="m210.22966 58.97638l39.62204 0l0 39.622047l-39.62204 0z" fill-rule="evenodd"/><path fill="#ffffff" d="m230.73038 85.7074l-1.328125 0l-3.203125 -7.25l-0.796875 0q-0.28125 0 -0.40625 -0.109375q-0.109375 -0.109375 -0.109375 -0.28125q0 -0.171875 0.109375 -0.28125q0.125 -0.109375 0.40625 -0.109375l2.921875 0q0.28125 0 0.40625 0.109375q0.125 0.109375 0.125 0.28125q0 0.171875 -0.125 0.28125q-0.125 0.109375 -0.40625 0.109375l-1.28125 0l2.859375 6.46875l0.34375 0l2.796875 -6.46875l-1.296875 0q-0.28125 0 -0.40625 -0.109375q-0.109375 -0.109375 -0.109375 -0.28125q0 -0.171875 0.109375 -0.28125q0.125 -0.109375 0.40625 -0.109375l2.921875 0q0.296875 0 0.40625 0.109375q0.125 0.109375 0.125 0.28125q0 0.171875 -0.125 0.28125q-0.109375 0.109375 -0.40625 0.109375l-0.78125 0l-3.15625 7.25z" fill-rule="nonzero"/><path fill="#649d66" d="m51.74147 112.11024l39.622047 0l0 39.622047l-39.622047 0z" fill-rule="evenodd"/><path stroke="#000000" stroke-width="1.0" stroke-linejoin="round" stroke-linecap="butt" d="m51.74147 112.11024l39.622047 0l0 39.622047l-39.622047 0z" fill-rule="evenodd"/><path fill="#ffffff" d="m68.61719 130.81001l0 1.421875q0.6875 -0.84375 1.484375 -1.265625q0.8125 -0.4375 1.890625 -0.4375q1.15625 0 2.125 0.546875q0.96875 0.53125 1.5 1.5q0.546875 0.953125 0.546875 2.0q0 1.6875 -1.203125 2.890625q-1.203125 1.1875 -2.953125 1.1875q-2.09375 0 -3.390625 -1.703125l0 4.6875l1.890625 0q0.28125 0 0.390625 0.109375q0.125 0.109375 0.125 0.28125q0 0.171875 -0.125 0.28125q-0.109375 0.109375 -0.390625 0.109375l-3.71875 0q-0.28125 0 -0.40625 -0.109375q-0.109375 -0.09375 -0.109375 -0.28125q0 -0.171875 0.109375 -0.28125q0.125 -0.109375 0.40625 -0.109375l1.046875 0l0 -10.046875l-1.046875 0q-0.28125 0 -0.40625 -0.109375q-0.109375 -0.109375 -0.109375 -0.28125q0 -0.171875 0.109375 -0.28125q0.125 -0.109375 0.40625 -0.109375l1.828125 0zm6.75 3.765625q0 -1.34375 -0.984375 -2.296875q-0.96875 -0.96875 -2.375 -0.96875q-1.421875 0 -2.40625 0.96875q-0.984375 0.96875 -0.984375 2.296875q0 1.359375 0.984375 2.328125q0.984375 0.953125 2.40625 0.953125q1.390625 0 2.375 -0.953125q0.984375 -0.96875 0.984375 -2.328125z" fill-rule="nonzero"/><path fill="#649d66" d="m91.36352 112.11024l39.622047 0l0 39.622047l-39.622047 0z" fill-rule="evenodd"/><path stroke="#000000" stroke-width="1.0" stroke-linejoin="round" stroke-linecap="butt" d="m91.36352 112.11024l39.622047 0l0 39.622047l-39.622047 0z" fill-rule="evenodd"/><path fill="#ffffff" d="m114.19236 132.23189l0 -1.421875l1.828125 0q0.296875 0 0.40625 0.109375q0.125 0.109375 0.125 0.28125q0 0.171875 -0.125 0.28125q-0.109375 0.109375 -0.40625 0.109375l-1.03125 0l0 10.046875l1.03125 0q0.296875 0 0.40625 0.109375q0.125 0.109375 0.125 0.28125q0 0.171875 -0.125 0.28125q-0.109375 0.109375 -0.40625 0.109375l-3.703125 0q-0.28125 0 -0.40625 -0.109375q-0.125 -0.09375 -0.125 -0.28125q0 -0.171875 0.125 -0.28125q0.125 -0.109375 0.40625 -0.109375l1.875 0l0 -4.6875q-1.28125 1.703125 -3.390625 1.703125q-1.734375 0 -2.9375 -1.1875q-1.203125 -1.203125 -1.203125 -2.890625q0 -1.6875 1.203125 -2.859375q1.203125 -1.1875 2.96875 -1.1875q2.078125 0 3.359375 1.703125zm0 2.34375q0 -1.34375 -0.984375 -2.296875q-0.984375 -0.96875 -2.390625 -0.96875q-1.40625 0 -2.390625 0.96875q-0.984375 0.953125 -0.984375 2.296875q0 1.359375 0.984375 2.328125q0.984375 0.953125 2.390625 0.953125q1.40625 0 2.390625 -0.953125q0.984375 -0.96875 0.984375 -2.328125z" fill-rule="nonzero"/><path fill="#649d66" d="m130.98557 112.11024l39.62204 0l0 39.622047l-39.62204 0z" fill-rule="evenodd"/><path stroke="#000000" stroke-width="1.0" stroke-linejoin="round" stroke-linecap="butt" d="m130.98557 112.11024l39.62204 0l0 39.622047l-39.62204 0z" fill-rule="evenodd"/><path fill="#ffffff" d="m149.86128 130.81001l0 1.96875q1.53125 -1.375 2.28125 -1.765625q0.75 -0.40625 1.390625 -0.40625q0.703125 0 1.296875 0.46875q0.59375 0.46875 0.59375 0.71875q0 0.171875 -0.109375 0.296875q-0.109375 0.109375 -0.296875 0.109375q-0.09375 0 -0.15625 -0.03125q-0.0625 -0.03125 -0.234375 -0.21875q-0.328125 -0.3125 -0.578125 -0.4375q-0.234375 -0.125 -0.46875 -0.125q-0.5 0 -1.21875 0.40625q-0.71875 0.40625 -2.5 2.0l0 4.265625l3.453125 0q0.28125 0 0.40625 0.109375q0.125 0.109375 0.125 0.28125q0 0.171875 -0.125 0.28125q-0.125 0.109375 -0.40625 0.109375l-6.109375 0q-0.28125 0 -0.40625 -0.109375q-0.109375 -0.109375 -0.109375 -0.265625q0 -0.15625 0.109375 -0.265625q0.109375 -0.109375 0.40625 -0.109375l1.875 0l0 -6.5l-1.4375 0q-0.28125 0 -0.40625 -0.109375q-0.109375 -0.109375 -0.109375 -0.28125q0 -0.171875 0.109375 -0.28125q0.125 -0.109375 0.40625 -0.109375l2.21875 0z" fill-rule="nonzero"/><path fill="#649d66" d="m170.6076 112.11024l39.622055 0l0 39.622047l-39.622055 0z" fill-rule="evenodd"/><path stroke="#000000" stroke-width="1.0" stroke-linejoin="round" stroke-linecap="butt" d="m170.6076 112.11024l39.622055 0l0 39.622047l-39.622055 0z" fill-rule="evenodd"/><path fill="#ffffff" d="m192.65521 138.84126l0 -1.125q-1.6875 1.4375 -3.625 1.4375q-1.40625 0 -2.1875 -0.703125q-0.78125 -0.71875 -0.78125 -1.75q0 -1.140625 1.03125 -1.984375q1.046875 -0.84375 3.03125 -0.84375q0.546875 0 1.171875 0.078125q0.625 0.0625 1.359375 0.21875l0 -1.265625q0 -0.640625 -0.59375 -1.109375q-0.59375 -0.484375 -1.78125 -0.484375q-0.90625 0 -2.546875 0.53125q-0.296875 0.09375 -0.375 0.09375q-0.15625 0 -0.265625 -0.109375q-0.109375 -0.109375 -0.109375 -0.28125q0 -0.15625 0.09375 -0.25q0.140625 -0.140625 1.0625 -0.375q1.4375 -0.390625 2.1875 -0.390625q1.46875 0 2.296875 0.734375q0.828125 0.71875 0.828125 1.640625l0 5.15625l1.03125 0q0.296875 0 0.40625 0.109375q0.125 0.109375 0.125 0.28125q0 0.171875 -0.125 0.28125q-0.109375 0.109375 -0.40625 0.109375l-1.828125 0zm0 -3.875q-0.546875 -0.15625 -1.15625 -0.234375q-0.609375 -0.078125 -1.28125 -0.078125q-1.703125 0 -2.65625 0.734375q-0.734375 0.546875 -0.734375 1.3125q0 0.703125 0.546875 1.1875q0.5625 0.484375 1.625 0.484375q1.0 0 1.859375 -0.40625q0.875 -0.40625 1.796875 -1.28125l0 -1.71875z" fill-rule="nonzero"/><path fill="#649d66" d="m210.22966 112.11024l39.62204 0l0 39.622047l-39.62204 0z" fill-rule="evenodd"/><path stroke="#000000" stroke-width="1.0" stroke-linejoin="round" stroke-linecap="butt" d="m210.22966 112.11024l39.62204 0l0 39.622047l-39.62204 0z" fill-rule="evenodd"/><path fill="#ffffff" d="m230.73038 138.84126l-1.328125 0l-3.203125 -7.25l-0.796875 0q-0.28125 0 -0.40625 -0.109375q-0.109375 -0.109375 -0.109375 -0.28125q0 -0.171875 0.109375 -0.28125q0.125 -0.109375 0.40625 -0.109375l2.921875 0q0.28125 0 0.40625 0.109375q0.125 0.109375 0.125 0.28125q0 0.171875 -0.125 0.28125q-0.125 0.109375 -0.40625 0.109375l-1.28125 0l2.859375 6.46875l0.34375 0l2.796875 -6.46875l-1.296875 0q-0.28125 0 -0.40625 -0.109375q-0.109375 -0.109375 -0.109375 -0.28125q0 -0.171875 0.109375 -0.28125q0.125 -0.109375 0.40625 -0.109375l2.921875 0q0.296875 0 0.40625 0.109375q0.125 0.109375 0.125 0.28125q0 0.171875 -0.125 0.28125q-0.109375 0.109375 -0.40625 0.109375l-0.78125 0l-3.15625 7.25z" fill-rule="nonzero"/><path fill="#649d66" d="m51.74147 164.29921l39.622047 0l0 39.622055l-39.622047 0z" fill-rule="evenodd"/><path stroke="#000000" stroke-width="1.0" stroke-linejoin="round" stroke-linecap="butt" d="m51.74147 164.29921l39.622047 0l0 39.622055l-39.622047 0z" fill-rule="evenodd"/><path fill="#ffffff" d="m74.96094 182.99898l0 0.6875l-5.828125 6.5625l5.265625 0l0 -1.078125q0 -0.28125 0.109375 -0.390625q0.109375 -0.125 0.28125 -0.125q0.171875 0 0.28125 0.125q0.109375 0.109375 0.109375 0.390625l0 1.859375l-7.125 0l0 -0.703125l5.796875 -6.546875l-4.84375 0l0 1.0625q0 0.28125 -0.109375 0.40625q-0.109375 0.109375 -0.265625 0.109375q-0.1875 0 -0.296875 -0.109375q-0.109375 -0.125 -0.109375 -0.40625l0 -1.84375l6.734375 0z" fill-rule="nonzero"/><path fill="#649d66" d="m91.36352 164.29921l39.622047 0l0 39.622055l-39.622047 0z" fill-rule="evenodd"/><path stroke="#000000" stroke-width="1.0" stroke-linejoin="round" stroke-linecap="butt" d="m91.36352 164.29921l39.622047 0l0 39.622055l-39.622047 0z" fill-rule="evenodd"/><path fill="#ffffff" d="m111.864235 191.03023l-1.328125 0l-3.203125 -7.25l-0.796875 0q-0.28125 0 -0.40625 -0.109375q-0.109375 -0.109375 -0.109375 -0.28125q0 -0.171875 0.109375 -0.28125q0.125 -0.109375 0.40625 -0.109375l2.921875 0q0.28125 0 0.40625 0.109375q0.125 0.109375 0.125 0.28125q0 0.171875 -0.125 0.28125q-0.125 0.109375 -0.40625 0.109375l-1.28125 0l2.859375 6.46875l0.34375 0l2.796875 -6.46875l-1.296875 0q-0.28125 0 -0.40625 -0.109375q-0.109375 -0.109375 -0.109375 -0.28125q0 -0.171875 0.109375 -0.28125q0.125 -0.109375 0.40625 -0.109375l2.921875 0q0.296875 0 0.40625 0.109375q0.125 0.109375 0.125 0.28125q0 0.171875 -0.125 0.28125q-0.109375 0.109375 -0.40625 0.109375l-0.78125 0l-3.15625 7.25z" fill-rule="nonzero"/><path fill="#649d66" d="m130.98557 164.29921l39.62204 0l0 39.622055l-39.62204 0z" fill-rule="evenodd"/><path stroke="#000000" stroke-width="1.0" stroke-linejoin="round" stroke-linecap="butt" d="m130.98557 164.29921l39.62204 0l0 39.622055l-39.62204 0z" fill-rule="evenodd"/><path fill="#649d66" d="m170.6076 164.29921l39.622055 0l0 39.622055l-39.622055 0z" fill-rule="evenodd"/><path stroke="#000000" stroke-width="1.0" stroke-linejoin="round" stroke-linecap="butt" d="m170.6076 164.29921l39.622055 0l0 39.622055l-39.622055 0z" fill-rule="evenodd"/><path fill="#ffffff" d="m193.43646 184.42085l0 -1.421875l1.828125 0q0.296875 0 0.40625 0.109375q0.125 0.109375 0.125 0.28125q0 0.171875 -0.125 0.28125q-0.109375 0.109375 -0.40625 0.109375l-1.03125 0l0 10.046875l1.03125 0q0.296875 0 0.40625 0.109375q0.125 0.109375 0.125 0.28125q0 0.171875 -0.125 0.28125q-0.109375 0.109375 -0.40625 0.109375l-3.703125 0q-0.28125 0 -0.40625 -0.109375q-0.125 -0.09375 -0.125 -0.28125q0 -0.171875 0.125 -0.28125q0.125 -0.109375 0.40625 -0.109375l1.875 0l0 -4.6875q-1.28125 1.703125 -3.390625 1.703125q-1.734375 0 -2.9375 -1.1875q-1.203125 -1.203125 -1.203125 -2.890625q0 -1.6875 1.203125 -2.859375q1.203125 -1.1875 2.96875 -1.1875q2.078125 0 3.359375 1.703125zm0 2.34375q0 -1.34375 -0.984375 -2.296875q-0.984375 -0.96875 -2.390625 -0.96875q-1.40625 0 -2.390625 0.96875q-0.984375 0.953125 -0.984375 2.296875q0 1.359375 0.984375 2.328125q0.984375 0.953125 2.390625 0.953125q1.40625 0 2.390625 -0.953125q0.984375 -0.96875 0.984375 -2.328125z" fill-rule="nonzero"/><path fill="#649d66" d="m210.22966 164.29921l39.62204 0l0 39.622055l-39.62204 0z" fill-rule="evenodd"/><path stroke="#000000" stroke-width="1.0" stroke-linejoin="round" stroke-linecap="butt" d="m210.22966 164.29921l39.62204 0l0 39.622055l-39.62204 0z" fill-rule="evenodd"/><path fill="#ffffff" d="m226.496 182.99898l0 0.78125q0.984375 -1.0625 1.984375 -1.0625q0.609375 0 1.0625 0.328125q0.453125 0.3125 0.765625 0.96875q0.515625 -0.65625 1.046875 -0.96875q0.53125 -0.328125 1.078125 -0.328125q0.84375 0 1.34375 0.546875q0.65625 0.703125 0.65625 1.546875l0 5.4375l0.65625 0q0.28125 0 0.390625 0.109375q0.125 0.109375 0.125 0.28125q0 0.171875 -0.125 0.28125q-0.109375 0.109375 -0.390625 0.109375l-1.4375 0l0 -6.15625q0 -0.59375 -0.359375 -0.984375q-0.359375 -0.390625 -0.828125 -0.390625q-0.4375 0 -0.90625 0.328125q-0.46875 0.3125 -1.078125 1.25l0 5.171875l0.65625 0q0.265625 0 0.390625 0.109375q0.125 0.109375 0.125 0.28125q0 0.171875 -0.125 0.28125q-0.125 0.109375 -0.390625 0.109375l-1.4375 0l0 -6.09375q0 -0.625 -0.375 -1.03125q-0.359375 -0.40625 -0.8125 -0.40625q-0.421875 0 -0.828125 0.28125q-0.5625 0.375 -1.1875 1.296875l0 5.171875l0.65625 0q0.28125 0 0.390625 0.109375q0.125 0.109375 0.125 0.28125q0 0.171875 -0.125 0.28125q-0.109375 0.109375 -0.390625 0.109375l-2.09375 0q-0.28125 0 -0.40625 -0.109375q-0.125 -0.109375 -0.125 -0.28125q0 -0.171875 0.125 -0.28125q0.125 -0.109375 0.40625 -0.109375l0.65625 0l0 -6.46875l-0.65625 0q-0.28125 0 -0.40625 -0.109375q-0.125 -0.109375 -0.125 -0.28125q0 -0.171875 0.125 -0.28125q0.125 -0.109375 0.40625 -0.109375l1.4375 0z" fill-rule="nonzero"/><path fill="#649d66" d="m51.74147 214.59842l39.622047 0l0 39.622055l-39.622047 0z" fill-rule="evenodd"/><path stroke="#000000" stroke-width="1.0" stroke-linejoin="round" stroke-linecap="butt" d="m51.74147 214.59842l39.622047 0l0 39.622055l-39.622047 0z" fill-rule="evenodd"/><path fill="#ffffff" d="m73.78906 241.32945l0 -1.125q-1.6875 1.4375 -3.625 1.4375q-1.40625 0 -2.1875 -0.703125q-0.78125 -0.71875 -0.78125 -1.75q0 -1.140625 1.03125 -1.984375q1.046875 -0.84375 3.03125 -0.84375q0.546875 0 1.171875 0.078125q0.625 0.0625 1.359375 0.21875l0 -1.265625q0 -0.640625 -0.59375 -1.109375q-0.59375 -0.484375 -1.78125 -0.484375q-0.90625 0 -2.546875 0.53125q-0.296875 0.09375 -0.375 0.09375q-0.15625 0 -0.265625 -0.109375q-0.109375 -0.109375 -0.109375 -0.28125q0 -0.15625 0.09375 -0.25q0.140625 -0.140625 1.0625 -0.375q1.4375 -0.390625 2.1875 -0.390625q1.46875 0 2.296875 0.734375q0.828125 0.71875 0.828125 1.640625l0 5.15625l1.03125 0q0.296875 0 0.40625 0.109375q0.125 0.109375 0.125 0.28125q0 0.171875 -0.125 0.28125q-0.109375 0.109375 -0.40625 0.109375l-1.828125 0zm0 -3.875q-0.546875 -0.15625 -1.15625 -0.234375q-0.609375 -0.078125 -1.28125 -0.078125q-1.703125 0 -2.65625 0.734375q-0.734375 0.546875 -0.734375 1.3125q0 0.703125 0.546875 1.1875q0.5625 0.484375 1.625 0.484375q1.0 0 1.859375 -0.40625q0.875 -0.40625 1.796875 -1.28125l0 -1.71875z" fill-rule="nonzero"/><path fill="#649d66" d="m91.36352 214.59842l39.622047 0l0 39.622055l-39.622047 0z" fill-rule="evenodd"/><path stroke="#000000" stroke-width="1.0" stroke-linejoin="round" stroke-linecap="butt" d="m91.36352 214.59842l39.622047 0l0 39.622055l-39.622047 0z" fill-rule="evenodd"/><path fill="#ffffff" d="m108.239235 233.2982l0 1.421875q0.6875 -0.84375 1.484375 -1.265625q0.8125 -0.4375 1.890625 -0.4375q1.15625 0 2.125 0.546875q0.96875 0.53125 1.5 1.5q0.546875 0.953125 0.546875 2.0q0 1.6875 -1.203125 2.890625q-1.203125 1.1875 -2.953125 1.1875q-2.09375 0 -3.390625 -1.703125l0 4.6875l1.890625 0q0.28125 0 0.390625 0.109375q0.125 0.109375 0.125 0.28125q0 0.171875 -0.125 0.28125q-0.109375 0.109375 -0.390625 0.109375l-3.71875 0q-0.28125 0 -0.40625 -0.109375q-0.109375 -0.09375 -0.109375 -0.28125q0 -0.171875 0.109375 -0.28125q0.125 -0.109375 0.40625 -0.109375l1.046875 0l0 -10.046875l-1.046875 0q-0.28125 0 -0.40625 -0.109375q-0.109375 -0.109375 -0.109375 -0.28125q0 -0.171875 0.109375 -0.28125q0.125 -0.109375 0.40625 -0.109375l1.828125 0zm6.75 3.765625q0 -1.34375 -0.984375 -2.296875q-0.96875 -0.96875 -2.375 -0.96875q-1.421875 0 -2.40625 0.96875q-0.984375 0.96875 -0.984375 2.296875q0 1.359375 0.984375 2.328125q0.984375 0.953125 2.40625 0.953125q1.390625 0 2.375 -0.953125q0.984375 -0.96875 0.984375 -2.328125z" fill-rule="nonzero"/><path fill="#649d66" d="m130.98557 214.59842l39.62204 0l0 39.622055l-39.62204 0z" fill-rule="evenodd"/><path stroke="#000000" stroke-width="1.0" stroke-linejoin="round" stroke-linecap="butt" d="m130.98557 214.59842l39.62204 0l0 39.622055l-39.62204 0z" fill-rule="evenodd"/><path fill="#ffffff" d="m150.28316 234.07945l0 6.46875l3.421875 0q0.28125 0 0.390625 0.109375q0.125 0.109375 0.125 0.28125q0 0.171875 -0.125 0.28125q-0.109375 0.109375 -0.390625 0.109375l-6.09375 0q-0.28125 0 -0.40625 -0.109375q-0.109375 -0.109375 -0.109375 -0.28125q0 -0.171875 0.109375 -0.28125q0.125 -0.109375 0.40625 -0.109375l1.875 0l0 -6.46875l-1.6875 0q-0.265625 0 -0.390625 -0.109375q-0.125 -0.109375 -0.125 -0.28125q0 -0.171875 0.125 -0.28125q0.125 -0.109375 0.390625 -0.109375l1.6875 0l0 -1.1875q0 -0.984375 0.796875 -1.703125q0.8125 -0.71875 2.125 -0.71875q1.109375 0 2.359375 0.203125q0.46875 0.078125 0.5625 0.1875q0.09375 0.09375 0.09375 0.25q0 0.171875 -0.109375 0.28125q-0.109375 0.109375 -0.296875 0.109375q-0.0625 0 -0.25 -0.03125q-1.390625 -0.21875 -2.359375 -0.21875q-1.015625 0 -1.578125 0.5q-0.546875 0.5 -0.546875 1.140625l0 1.1875l3.640625 0q0.28125 0 0.40625 0.109375q0.125 0.109375 0.125 0.28125q0 0.171875 -0.125 0.28125q-0.125 0.109375 -0.40625 0.109375l-3.640625 0z" fill-rule="nonzero"/><path fill="#649d66" d="m170.6076 214.59842l39.622055 0l0 39.622055l-39.622055 0z" fill-rule="evenodd"/><path stroke="#000000" stroke-width="1.0" stroke-linejoin="round" stroke-linecap="butt" d="m170.6076 214.59842l39.622055 0l0 39.622055l-39.622055 0z" fill-rule="evenodd"/><path fill="#ffffff" d="m190.81146 229.68883l0 10.859375l3.0625 0q0.28125 0 0.40625 0.109375q0.125 0.109375 0.125 0.28125q0 0.171875 -0.125 0.28125q-0.125 0.109375 -0.40625 0.109375l-6.90625 0q-0.28125 0 -0.40625 -0.109375q-0.109375 -0.109375 -0.109375 -0.28125q0 -0.171875 0.109375 -0.28125q0.125 -0.109375 0.40625 -0.109375l3.0625 0l0 -10.078125l-2.234375 0q-0.28125 0 -0.40625 -0.109375q-0.125 -0.109375 -0.125 -0.28125q0 -0.171875 0.109375 -0.28125q0.125 -0.109375 0.421875 -0.109375l3.015625 0z" fill-rule="nonzero"/><path fill="#649d66" d="m210.22966 214.59842l39.62204 0l0 39.622055l-39.62204 0z" fill-rule="evenodd"/><path stroke="#000000" stroke-width="1.0" stroke-linejoin="round" stroke-linecap="butt" d="m210.22966 214.59842l39.62204 0l0 39.622055l-39.62204 0z" fill-rule="evenodd"/><path fill="#ffffff" d="m229.10538 233.2982l0 1.96875q1.53125 -1.375 2.28125 -1.765625q0.75 -0.40625 1.390625 -0.40625q0.703125 0 1.296875 0.46875q0.59375 0.46875 0.59375 0.71875q0 0.171875 -0.109375 0.296875q-0.109375 0.109375 -0.296875 0.109375q-0.09375 0 -0.15625 -0.03125q-0.0625 -0.03125 -0.234375 -0.21875q-0.328125 -0.3125 -0.578125 -0.4375q-0.234375 -0.125 -0.46875 -0.125q-0.5 0 -1.21875 0.40625q-0.71875 0.40625 -2.5 2.0l0 4.265625l3.453125 0q0.28125 0 0.40625 0.109375q0.125 0.109375 0.125 0.28125q0 0.171875 -0.125 0.28125q-0.125 0.109375 -0.40625 0.109375l-6.109375 0q-0.28125 0 -0.40625 -0.109375q-0.109375 -0.109375 -0.109375 -0.265625q0 -0.15625 0.109375 -0.265625q0.109375 -0.109375 0.40625 -0.109375l1.875 0l0 -6.5l-1.4375 0q-0.28125 0 -0.40625 -0.109375q-0.109375 -0.109375 -0.109375 -0.28125q0 -0.171875 0.109375 -0.28125q0.125 -0.109375 0.40625 -0.109375l2.21875 0z" fill-rule="nonzero"/><path fill="#649d66" d="m51.740158 264.89764l39.622047 0l0 39.62204l-39.622047 0z" fill-rule="evenodd"/><path stroke="#000000" stroke-width="1.0" stroke-linejoin="round" stroke-linecap="butt" d="m51.740158 264.89764l39.622047 0l0 39.62204l-39.622047 0z" fill-rule="evenodd"/><path fill="#ffffff" d="m75.365875 279.98804l0 10.859375l1.046875 0q0.28125 0 0.40625 0.109375q0.125 0.109375 0.125 0.28125q0 0.171875 -0.125 0.28125q-0.125 0.109375 -0.40625 0.109375l-1.828125 0l0 -1.546875q-1.359375 1.859375 -3.453125 1.859375q-1.046875 0 -2.015625 -0.5625q-0.96875 -0.5625 -1.53125 -1.59375q-0.5625 -1.046875 -0.5625 -2.15625q0 -1.109375 0.5625 -2.140625q0.5625 -1.046875 1.53125 -1.609375q0.96875 -0.5625 2.03125 -0.5625q2.046875 0 3.4375 1.859375l0 -4.40625l-1.046875 0q-0.28125 0 -0.40625 -0.109375q-0.125 -0.109375 -0.125 -0.28125q0 -0.171875 0.125 -0.28125q0.125 -0.109375 0.40625 -0.109375l1.828125 0zm-0.78125 7.640625q0 -1.484375 -1.015625 -2.5q-1.0 -1.03125 -2.375 -1.03125q-1.390625 0 -2.390625 1.03125q-1.0 1.015625 -1.0 2.5q0 1.46875 1.0 2.5q1.0 1.03125 2.390625 1.03125q1.375 0 2.375 -1.03125q1.015625 -1.03125 1.015625 -2.5z" fill-rule="nonzero"/><path fill="#649d66" d="m91.362206 264.89764l39.622047 0l0 39.62204l-39.622047 0z" fill-rule="evenodd"/><path stroke="#000000" stroke-width="1.0" stroke-linejoin="round" stroke-linecap="butt" d="m91.362206 264.89764l39.622047 0l0 39.62204l-39.622047 0z" fill-rule="evenodd"/><path fill="#649d66" d="m130.98425 264.89764l39.62204 0l0 39.62204l-39.62204 0z" fill-rule="evenodd"/><path stroke="#000000" stroke-width="1.0" stroke-linejoin="round" stroke-linecap="butt" d="m130.98425 264.89764l39.62204 0l0 39.62204l-39.62204 0z" fill-rule="evenodd"/><path fill="#ffffff" d="m151.48497 291.62866l-1.328125 0l-3.203125 -7.25l-0.796875 0q-0.28125 0 -0.40625 -0.109375q-0.109375 -0.109375 -0.109375 -0.28125q0 -0.171875 0.109375 -0.28125q0.125 -0.109375 0.40625 -0.109375l2.921875 0q0.28125 0 0.40625 0.109375q0.125 0.109375 0.125 0.28125q0 0.171875 -0.125 0.28125q-0.125 0.109375 -0.40625 0.109375l-1.28125 0l2.859375 6.46875l0.34375 0l2.796875 -6.46875l-1.296875 0q-0.28125 0 -0.40625 -0.109375q-0.109375 -0.109375 -0.109375 -0.28125q0 -0.171875 0.109375 -0.28125q0.125 -0.109375 0.40625 -0.109375l2.921875 0q0.296875 0 0.40625 0.109375q0.125 0.109375 0.125 0.28125q0 0.171875 -0.125 0.28125q-0.109375 0.109375 -0.40625 0.109375l-0.78125 0l-3.15625 7.25z" fill-rule="nonzero"/><path fill="#649d66" d="m170.6063 264.89764l39.622055 0l0 39.62204l-39.622055 0z" fill-rule="evenodd"/><path stroke="#000000" stroke-width="1.0" stroke-linejoin="round" stroke-linecap="butt" d="m170.6063 264.89764l39.622055 0l0 39.62204l-39.622055 0z" fill-rule="evenodd"/><path fill="#ffffff" d="m193.43515 285.0193l0 -1.421875l1.828125 0q0.296875 0 0.40625 0.109375q0.125 0.109375 0.125 0.28125q0 0.171875 -0.125 0.28125q-0.109375 0.109375 -0.40625 0.109375l-1.03125 0l0 10.046875l1.03125 0q0.296875 0 0.40625 0.109375q0.125 0.109375 0.125 0.28125q0 0.171875 -0.125 0.28125q-0.109375 0.109375 -0.40625 0.109375l-3.703125 0q-0.28125 0 -0.40625 -0.109375q-0.125 -0.09375 -0.125 -0.28125q0 -0.171875 0.125 -0.28125q0.125 -0.109375 0.40625 -0.109375l1.875 0l0 -4.6875q-1.28125 1.703125 -3.390625 1.703125q-1.734375 0 -2.9375 -1.1875q-1.203125 -1.203125 -1.203125 -2.890625q0 -1.6875 1.203125 -2.859375q1.203125 -1.1875 2.96875 -1.1875q2.078125 0 3.359375 1.703125zm0 2.34375q0 -1.34375 -0.984375 -2.296875q-0.984375 -0.96875 -2.390625 -0.96875q-1.40625 0 -2.390625 0.96875q-0.984375 0.953125 -0.984375 2.296875q0 1.359375 0.984375 2.328125q0.984375 0.953125 2.390625 0.953125q1.40625 0 2.390625 -0.953125q0.984375 -0.96875 0.984375 -2.328125z" fill-rule="nonzero"/><path fill="#649d66" d="m210.22835 264.89764l39.62204 0l0 39.62204l-39.62204 0z" fill-rule="evenodd"/><path stroke="#000000" stroke-width="1.0" stroke-linejoin="round" stroke-linecap="butt" d="m210.22835 264.89764l39.62204 0l0 39.62204l-39.62204 0z" fill-rule="evenodd"/><path fill="#ffffff" d="m232.27594 291.62866l0 -1.125q-1.6875 1.4375 -3.625 1.4375q-1.40625 0 -2.1875 -0.703125q-0.78125 -0.71875 -0.78125 -1.75q0 -1.140625 1.03125 -1.984375q1.046875 -0.84375 3.03125 -0.84375q0.546875 0 1.171875 0.078125q0.625 0.0625 1.359375 0.21875l0 -1.265625q0 -0.640625 -0.59375 -1.109375q-0.59375 -0.484375 -1.78125 -0.484375q-0.90625 0 -2.546875 0.53125q-0.296875 0.09375 -0.375 0.09375q-0.15625 0 -0.265625 -0.109375q-0.109375 -0.109375 -0.109375 -0.28125q0 -0.15625 0.09375 -0.25q0.140625 -0.140625 1.0625 -0.375q1.4375 -0.390625 2.1875 -0.390625q1.46875 0 2.296875 0.734375q0.828125 0.71875 0.828125 1.640625l0 5.15625l1.03125 0q0.296875 0 0.40625 0.109375q0.125 0.109375 0.125 0.28125q0 0.171875 -0.125 0.28125q-0.109375 0.109375 -0.40625 0.109375l-1.828125 0zm0 -3.875q-0.546875 -0.15625 -1.15625 -0.234375q-0.609375 -0.078125 -1.28125 -0.078125q-1.703125 0 -2.65625 0.734375q-0.734375 0.546875 -0.734375 1.3125q0 0.703125 0.546875 1.1875q0.5625 0.484375 1.625 0.484375q1.0 0 1.859375 -0.40625q0.875 -0.40625 1.796875 -1.28125l0 -1.71875z" fill-rule="nonzero"/><path fill="#000000" fill-opacity="0.0" d="m8.98294 58.97638l36.692913 0l0 39.622047l-36.692913 0z" fill-rule="evenodd"/><path fill="#000000" d="m29.701689 78.7649l0 2.4375q0 3.171875 -1.515625 5.015625q-1.171875 1.46875 -2.984375 1.46875q-0.859375 0 -1.640625 -0.359375q-0.765625 -0.34375 -1.296875 -0.96875q-0.34375 -0.375 -0.75 -1.234375q-0.40625 -0.859375 -0.578125 -1.578125q-0.265625 -1.0 -0.265625 -2.34375l0 -2.4375q0 -3.1875 1.515625 -5.046875q1.171875 -1.453125 2.984375 -1.453125q0.875 0 1.640625 0.34375q0.765625 0.34375 1.296875 0.96875q0.359375 0.40625 0.75 1.265625q0.40625 0.84375 0.59375 1.546875q0.25 1.015625 0.25 2.375zm-0.984375 0.125q0 -1.390625 -0.390625 -2.59375q-0.390625 -1.203125 -0.890625 -1.921875q-0.28125 -0.40625 -0.75 -0.703125q-0.671875 -0.40625 -1.5 -0.40625q-1.65625 0 -2.59375 1.6875q-0.9375 1.6875 -0.9375 3.9375l0 2.171875q0 1.390625 0.390625 2.59375q0.390625 1.203125 0.890625 1.921875q0.28125 0.40625 0.75 0.6875q0.671875 0.421875 1.515625 0.421875q1.640625 0 2.578125 -1.6875q0.9375 -1.6875 0.9375 -3.9375l0 -2.171875z" fill-rule="nonzero"/><path fill="#000000" fill-opacity="0.0" d="m8.98294 112.11024l36.692913 0l0 39.622047l-36.692913 0z" fill-rule="evenodd"/><path fill="#000000" d="m25.670439 125.55501l0 13.921875l3.375 0q0.359375 0 0.5 0.140625q0.15625 0.125 0.15625 0.34375q0 0.21875 -0.15625 0.359375q-0.140625 0.140625 -0.5 0.140625l-7.734375 0q-0.34375 0 -0.5 -0.140625q-0.15625 -0.140625 -0.15625 -0.359375q0 -0.21875 0.15625 -0.34375q0.15625 -0.140625 0.5 -0.140625l3.375 0l0 -12.5625l-3.203125 1.0q-0.234375 0.078125 -0.34375 0.078125q-0.171875 0 -0.328125 -0.140625q-0.140625 -0.15625 -0.140625 -0.359375q0 -0.171875 0.109375 -0.328125q0.09375 -0.09375 0.390625 -0.1875l4.5 -1.421875z" fill-rule="nonzero"/><path fill="#000000" fill-opacity="0.0" d="m8.98294 164.29921l36.692913 0l0 39.622055l-36.692913 0z" fill-rule="evenodd"/><path fill="#000000" d="m20.951689 191.66586l7.5625 0l0 -0.390625q0 -0.34375 0.140625 -0.5q0.140625 -0.15625 0.359375 -0.15625q0.203125 0 0.34375 0.15625q0.140625 0.15625 0.140625 0.5l0 1.375l-9.515625 0l0 -1.453125q3.0 -2.703125 5.84375 -5.484375q1.328125 -1.296875 1.8125 -1.90625q0.5 -0.609375 0.671875 -1.078125q0.1875 -0.46875 0.1875 -0.9375q0 -1.265625 -1.03125 -2.234375q-1.015625 -0.96875 -2.453125 -0.96875q-1.28125 0 -2.28125 0.734375q-1.0 0.734375 -1.296875 1.828125q-0.0625 0.28125 -0.171875 0.359375q-0.140625 0.125 -0.328125 0.125q-0.203125 0 -0.34375 -0.125q-0.125 -0.140625 -0.125 -0.328125q0 -0.5625 0.609375 -1.515625q0.625 -0.96875 1.703125 -1.515625q1.09375 -0.5625 2.21875 -0.5625q1.84375 0 3.171875 1.28125q1.328125 1.28125 1.328125 2.890625q0 0.6875 -0.234375 1.25q-0.21875 0.5625 -0.75 1.25q-0.53125 0.671875 -1.921875 2.03125q-3.46875 3.421875 -5.640625 5.296875l0 0.078125z" fill-rule="nonzero"/><path fill="#000000" fill-opacity="0.0" d="m8.98294 214.59842l36.692913 0l0 39.622055l-36.692913 0z" fill-rule="evenodd"/><path fill="#000000" d="m27.201689 234.94945q1.359375 0.609375 2.078125 1.671875q0.71875 1.046875 0.71875 2.203125q0 1.765625 -1.4375 3.125q-1.4375 1.359375 -3.59375 1.359375q-1.265625 0 -2.625 -0.546875q-1.359375 -0.546875 -1.890625 -1.109375q-0.1875 -0.1875 -0.1875 -0.390625q0 -0.1875 0.140625 -0.328125q0.140625 -0.140625 0.328125 -0.140625q0.1875 0 0.421875 0.171875q1.8125 1.34375 3.84375 1.34375q1.703125 0 2.859375 -1.0625q1.15625 -1.078125 1.15625 -2.390625q0 -0.875 -0.578125 -1.71875q-0.5625 -0.84375 -1.625 -1.328125q-1.0625 -0.484375 -2.15625 -0.484375q-0.359375 0 -0.515625 -0.140625q-0.140625 -0.140625 -0.140625 -0.359375q0 -0.203125 0.140625 -0.34375q0.15625 -0.140625 0.4375 -0.140625l0.84375 0q1.328125 0 2.1875 -0.796875q0.859375 -0.8125 0.859375 -1.875q0 -1.109375 -0.90625 -1.953125q-0.890625 -0.84375 -2.34375 -0.84375q-1.015625 0 -1.875 0.359375q-0.859375 0.34375 -1.375 0.953125q-0.1875 0.234375 -0.296875 0.296875q-0.09375 0.046875 -0.21875 0.046875q-0.203125 0 -0.34375 -0.125q-0.140625 -0.140625 -0.140625 -0.328125q0 -0.46875 1.03125 -1.1875q1.40625 -1.0 3.21875 -1.0q1.859375 0 3.046875 1.125q1.203125 1.109375 1.203125 2.65625q0 0.984375 -0.578125 1.875q-0.5625 0.875 -1.6875 1.40625z" fill-rule="nonzero"/><path fill="#000000" fill-opacity="0.0" d="m8.981627 264.89764l36.692913 0l0 39.62204l-36.692913 0z" fill-rule="evenodd"/><path fill="#000000" d="m30.012877 293.24866l-1.265625 0l-7.265625 -12.265625l0 11.28125l1.828125 0q0.359375 0 0.5 0.140625q0.15625 0.125 0.15625 0.34375q0 0.21875 -0.15625 0.359375q-0.140625 0.140625 -0.5 0.140625l-3.625 0q-0.359375 0 -0.515625 -0.140625q-0.15625 -0.140625 -0.15625 -0.359375q0 -0.21875 0.15625 -0.34375q0.15625 -0.140625 0.515625 -0.140625l0.8125 0l0 -11.75l-1.3125 0q-0.359375 0 -0.515625 -0.125q-0.140625 -0.140625 -0.140625 -0.359375q0 -0.21875 0.140625 -0.359375q0.15625 -0.140625 0.515625 -0.140625l2.578125 0l7.265625 12.296875l0 -11.3125l-1.828125 0q-0.34375 0 -0.5 -0.125q-0.15625 -0.140625 -0.15625 -0.359375q0 -0.21875 0.140625 -0.359375q0.15625 -0.140625 0.515625 -0.140625l3.640625 0q0.34375 0 0.5 0.140625q0.15625 0.140625 0.15625 0.359375q0 0.21875 -0.15625 0.359375q-0.15625 0.125 -0.5 0.125l-0.828125 0l0 12.734375z" fill-rule="nonzero"/><path fill="#000000" fill-opacity="0.0" d="m261.88715 58.97638l0 0c5.2542114 0 10.293213 2.0872269 14.008514 5.802513c3.715271 3.7152863 5.80249 8.754295 5.80249 14.008507l0 83.14961c0 10.94133 8.86972 19.81102 19.811035 19.81102l0 0c-10.941315 0 -19.811035 8.86969 -19.811035 19.81102l0 83.1496c0 10.941345 -8.86969 19.811035 -19.811005 19.811035z" fill-rule="evenodd"/><path fill="#000000" fill-opacity="0.0" d="m261.88715 58.97638l0 0c5.2542114 0 10.293213 2.0872269 14.008514 5.802513c3.715271 3.7152863 5.80249 8.754295 5.80249 14.008507l0 83.14961c0 10.94133 8.86972 19.81102 19.811035 19.81102l0 0c-10.941315 0 -19.811035 8.86969 -19.811035 19.81102l0 83.1496c0 10.941345 -8.86969 19.811035 -19.811005 19.811035" fill-rule="evenodd"/><path stroke="#000000" stroke-width="1.0" stroke-linejoin="round" stroke-linecap="butt" d="m261.88715 58.97638l0 0c5.2542114 0 10.293213 2.0872269 14.008514 5.802513c3.715271 3.7152863 5.80249 8.754295 5.80249 14.008507l0 83.14961c0 10.94133 8.86972 19.81102 19.811035 19.81102l0 0c-10.941315 0 -19.811035 8.86969 -19.811035 19.81102l0 83.1496c0 10.941345 -8.86969 19.811035 -19.811005 19.811035" fill-rule="evenodd"/><path fill="#000000" fill-opacity="0.0" d="m307.88452 166.34645l127.653534 0l0 30.803162l-127.653534 0z" fill-rule="evenodd"/><path fill="#000000" d="m322.90015 176.4049q2.140625 0 3.359375 1.03125q1.21875 1.015625 1.21875 2.8125q0 1.796875 -1.21875 2.8125q-1.21875 1.015625 -3.359375 1.015625l-3.0 0l0 3.53125l-1.1875 0l0 -11.203125l4.1875 0zm-0.03125 6.625q1.65625 0 2.53125 -0.71875q0.890625 -0.734375 0.890625 -2.0625q0 -1.359375 -0.890625 -2.078125q-0.875 -0.734375 -2.53125 -0.734375l-2.96875 0l0 5.59375l2.96875 0zm10.326904 4.65625q-1.21875 0 -2.203125 -0.546875q-0.96875 -0.5625 -1.53125 -1.53125q-0.5625 -0.96875 -0.5625 -2.203125q0 -1.234375 0.5625 -2.203125q0.5625 -0.984375 1.53125 -1.53125q0.984375 -0.546875 2.203125 -0.546875q1.203125 0 2.171875 0.546875q0.984375 0.546875 1.53125 1.53125q0.5625 0.96875 0.5625 2.203125q0 1.234375 -0.5625 2.203125q-0.546875 0.96875 -1.53125 1.53125q-0.96875 0.546875 -2.171875 0.546875zm0 -1.0q0.890625 0 1.59375 -0.40625q0.71875 -0.421875 1.109375 -1.171875q0.40625 -0.75 0.40625 -1.703125q0 -0.96875 -0.40625 -1.71875q-0.390625 -0.75 -1.109375 -1.15625q-0.703125 -0.40625 -1.59375 -0.40625q-0.90625 0 -1.625 0.40625q-0.703125 0.40625 -1.109375 1.15625q-0.40625 0.75 -0.40625 1.71875q0 0.953125 0.40625 1.703125q0.40625 0.75 1.109375 1.171875q0.71875 0.40625 1.625 0.40625zm10.922638 -7.5625q1.1875 0 2.140625 0.546875q0.96875 0.53125 1.5 1.515625q0.546875 0.96875 0.546875 2.21875q0 1.265625 -0.546875 2.25q-0.53125 0.96875 -1.484375 1.5q-0.953125 0.53125 -2.15625 0.53125q-1.03125 0 -1.859375 -0.421875q-0.8125 -0.421875 -1.34375 -1.234375l0 4.6875l-1.140625 0l0 -11.53125l1.09375 0l0 1.671875q0.515625 -0.828125 1.34375 -1.28125q0.84375 -0.453125 1.90625 -0.453125zm-0.078125 7.5625q0.875 0 1.59375 -0.40625q0.71875 -0.421875 1.125 -1.171875q0.40625 -0.75 0.40625 -1.703125q0 -0.96875 -0.40625 -1.703125q-0.40625 -0.75 -1.125 -1.15625q-0.71875 -0.421875 -1.59375 -0.421875q-0.90625 0 -1.625 0.421875q-0.703125 0.40625 -1.109375 1.15625q-0.40625 0.734375 -0.40625 1.703125q0 0.953125 0.40625 1.703125q0.40625 0.75 1.109375 1.171875q0.71875 0.40625 1.625 0.40625zm14.176147 -7.5l0 8.421875l-1.09375 0l0 -1.53125q-0.453125 0.765625 -1.234375 1.1875q-0.78125 0.421875 -1.78125 0.421875q-1.65625 0 -2.609375 -0.921875q-0.953125 -0.921875 -0.953125 -2.6875l0 -4.890625l1.140625 0l0 4.78125q0 1.328125 0.65625 2.015625q0.65625 0.6875 1.875 0.6875q1.328125 0 2.09375 -0.8125q0.765625 -0.8125 0.765625 -2.25l0 -4.421875l1.140625 0zm3.1742554 -3.453125l1.140625 0l0 11.875l-1.140625 0l0 -11.875zm7.257141 3.390625q1.640625 0 2.515625 0.828125q0.890625 0.828125 0.890625 2.4375l0 5.21875l-1.09375 0l0 -1.3125q-0.375 0.65625 -1.125 1.03125q-0.75 0.359375 -1.765625 0.359375q-1.40625 0 -2.25 -0.671875q-0.828125 -0.671875 -0.828125 -1.78125q0 -1.0625 0.78125 -1.71875q0.78125 -0.65625 2.46875 -0.65625l2.671875 0l0 -0.515625q0 -1.09375 -0.609375 -1.65625q-0.609375 -0.5625 -1.765625 -0.5625q-0.8125 0 -1.546875 0.265625q-0.734375 0.265625 -1.265625 0.71875l-0.5 -0.84375q0.640625 -0.546875 1.53125 -0.84375q0.890625 -0.296875 1.890625 -0.296875zm-0.40625 7.671875q0.96875 0 1.65625 -0.4375q0.6875 -0.453125 1.015625 -1.28125l0 -1.375l-2.640625 0q-2.15625 0 -2.15625 1.5q0 0.75 0.5625 1.171875q0.5625 0.421875 1.5625 0.421875zm11.330658 0.296875q-0.3125 0.296875 -0.796875 0.453125q-0.46875 0.140625 -0.984375 0.140625q-1.171875 0 -1.8125 -0.640625q-0.640625 -0.640625 -0.640625 -1.8125l0 -5.078125l-1.515625 0l0 -0.96875l1.515625 0l0 -1.828125l1.125 0l0 1.828125l2.5625 0l0 0.96875l-2.5625 0l0 5.015625q0 0.75 0.375 1.15625q0.375 0.390625 1.09375 0.390625q0.34375 0 0.671875 -0.109375q0.328125 -0.125 0.5625 -0.328125l0.40625 0.8125zm2.0585022 -7.90625l1.140625 0l0 8.421875l-1.140625 0l0 -8.421875zm0.578125 -1.828125q-0.359375 0 -0.59375 -0.234375q-0.234375 -0.25 -0.234375 -0.59375q0 -0.3125 0.234375 -0.546875q0.234375 -0.25 0.59375 -0.25q0.34375 0 0.578125 0.234375q0.25 0.234375 0.25 0.546875q0 0.359375 -0.25 0.609375q-0.234375 0.234375 -0.578125 0.234375zm7.179016 10.328125q-1.21875 0 -2.203125 -0.546875q-0.96875 -0.5625 -1.53125 -1.53125q-0.5625 -0.96875 -0.5625 -2.203125q0 -1.234375 0.5625 -2.203125q0.5625 -0.984375 1.53125 -1.53125q0.984375 -0.546875 2.203125 -0.546875q1.203125 0 2.171875 0.546875q0.984375 0.546875 1.53125 1.53125q0.5625 0.96875 0.5625 2.203125q0 1.234375 -0.5625 2.203125q-0.546875 0.96875 -1.53125 1.53125q-0.96875 0.546875 -2.171875 0.546875zm0 -1.0q0.890625 0 1.59375 -0.40625q0.71875 -0.421875 1.109375 -1.171875q0.40625 -0.75 0.40625 -1.703125q0 -0.96875 -0.40625 -1.71875q-0.390625 -0.75 -1.109375 -1.15625q-0.703125 -0.40625 -1.59375 -0.40625q-0.90625 0 -1.625 0.40625q-0.703125 0.40625 -1.109375 1.15625q-0.40625 0.75 -0.40625 1.71875q0 0.953125 0.40625 1.703125q0.40625 0.75 1.109375 1.171875q0.71875 0.40625 1.625 0.40625zm10.875763 -7.5625q1.578125 0 2.515625 0.921875q0.9375 0.921875 0.9375 2.6875l0 4.875l-1.140625 0l0 -4.765625q0 -1.3125 -0.65625 -2.0q-0.65625 -0.6875 -1.875 -0.6875q-1.359375 0 -2.15625 0.8125q-0.78125 0.796875 -0.78125 2.21875l0 4.421875l-1.140625 0l0 -8.421875l1.09375 0l0 1.5625q0.46875 -0.765625 1.28125 -1.1875q0.828125 -0.4375 1.921875 -0.4375z" fill-rule="nonzero"/><path fill="#000000" fill-opacity="0.0" d="m246.7979 315.19684l0 0c0 2.167694 -0.86109924 4.246582 -2.3938751 5.779358c-1.5327759 1.5327759 -3.611679 2.3938904 -5.779358 2.3938904l-81.18109 0c-4.5139465 0 -8.173233 3.6592712 -8.173233 8.173218l0 0c0 -4.5139465 -3.6592712 -8.173218 -8.173233 -8.173218l-81.18109 0c-4.5139503 0 -8.173229 -3.6593018 -8.173229 -8.173248z" fill-rule="evenodd"/><path fill="#000000" fill-opacity="0.0" d="m246.7979 315.19684l0 0c0 2.167694 -0.86109924 4.246582 -2.3938751 5.779358c-1.5327759 1.5327759 -3.611679 2.3938904 -5.779358 2.3938904l-81.18109 0c-4.5139465 0 -8.173233 3.6592712 -8.173233 8.173218l0 0c0 -4.5139465 -3.6592712 -8.173218 -8.173233 -8.173218l-81.18109 0c-4.5139503 0 -8.173229 -3.6593018 -8.173229 -8.173248" fill-rule="evenodd"/><path stroke="#000000" stroke-width="1.0" stroke-linejoin="round" stroke-linecap="butt" d="m246.7979 315.19684l0 0c0 2.167694 -0.86109924 4.246582 -2.3938751 5.779358c-1.5327759 1.5327759 -3.611679 2.3938904 -5.779358 2.3938904l-81.18109 0c-4.5139465 0 -8.173233 3.6592712 -8.173233 8.173218l0 0c0 -4.5139465 -3.6592712 -8.173218 -8.173233 -8.173218l-81.18109 0c-4.5139503 0 -8.173229 -3.6593018 -8.173229 -8.173248" fill-rule="evenodd"/><path fill="#000000" fill-opacity="0.0" d="m79.69554 337.81628l142.20473 0l0 30.803131l-142.20473 0z" fill-rule="evenodd"/><path fill="#000000" d="m102.41331 359.1716q-1.65625 0 -3.0 -0.734375q-1.328125 -0.734375 -2.09375 -2.03125q-0.765625 -1.3125 -0.765625 -2.921875q0 -1.625 0.765625 -2.921875q0.765625 -1.3125 2.109375 -2.046875q1.34375 -0.734375 3.0 -0.734375q1.25 0 2.296875 0.421875q1.0625 0.40625 1.796875 1.21875l-0.75 0.75q-1.3125 -1.328125 -3.3125 -1.328125q-1.328125 0 -2.421875 0.609375q-1.078125 0.59375 -1.703125 1.65625q-0.609375 1.0625 -0.609375 2.375q0 1.3125 0.609375 2.375q0.625 1.046875 1.703125 1.65625q1.09375 0.609375 2.421875 0.609375q2.015625 0 3.3125 -1.34375l0.75 0.75q-0.734375 0.796875 -1.796875 1.21875q-1.0625 0.421875 -2.3125 0.421875zm10.691528 -8.578125q1.578125 0 2.515625 0.921875q0.9375 0.921875 0.9375 2.6875l0 4.875l-1.140625 0l0 -4.765625q0 -1.3125 -0.65625 -2.0q-0.65625 -0.6875 -1.875 -0.6875q-1.359375 0 -2.15625 0.8125q-0.78125 0.796875 -0.78125 2.21875l0 4.421875l-1.140625 0l0 -11.875l1.140625 0l0 4.9375q0.46875 -0.75 1.28125 -1.140625q0.8125 -0.40625 1.875 -0.40625zm7.628891 1.71875q0.40625 -0.84375 1.1875 -1.28125q0.796875 -0.4375 1.96875 -0.4375l0 1.109375l-0.28125 -0.015625q-1.328125 0 -2.078125 0.8125q-0.75 0.8125 -0.75 2.296875l0 4.28125l-1.140625 0l0 -8.421875l1.09375 0l0 1.65625zm8.56739 6.84375q-1.21875 0 -2.2031174 -0.546875q-0.96875 -0.5625 -1.53125 -1.53125q-0.5625 -0.96875 -0.5625 -2.203125q0 -1.234375 0.5625 -2.203125q0.5625 -0.984375 1.53125 -1.53125q0.9843674 -0.546875 2.2031174 -0.546875q1.203125 0 2.171875 0.546875q0.984375 0.546875 1.53125 1.53125q0.5625 0.96875 0.5625 2.203125q0 1.234375 -0.5625 2.203125q-0.546875 0.96875 -1.53125 1.53125q-0.96875 0.546875 -2.171875 0.546875zm0 -1.0q0.890625 0 1.59375 -0.40625q0.71875 -0.421875 1.109375 -1.171875q0.40625 -0.75 0.40625 -1.703125q0 -0.96875 -0.40625 -1.71875q-0.390625 -0.75 -1.109375 -1.15625q-0.703125 -0.40625 -1.59375 -0.40625q-0.90625 0 -1.6249924 0.40625q-0.703125 0.40625 -1.109375 1.15625q-0.40625 0.75 -0.40625 1.71875q0 0.953125 0.40625 1.703125q0.40625 0.75 1.109375 1.171875q0.7187424 0.40625 1.6249924 0.40625zm17.078888 -7.5625q1.578125 0 2.484375 0.921875q0.90625 0.90625 0.90625 2.6875l0 4.875l-1.125 0l0 -4.765625q0 -1.3125 -0.640625 -2.0q-0.625 -0.6875 -1.78125 -0.6875q-1.3125 0 -2.0625 0.8125q-0.75 0.796875 -0.75 2.21875l0 4.421875l-1.140625 0l0 -4.765625q0 -1.3125 -0.640625 -2.0q-0.625 -0.6875 -1.796875 -0.6875q-1.296875 0 -2.0625 0.8125q-0.75 0.796875 -0.75 2.21875l0 4.421875l-1.140625 0l0 -8.421875l1.09375 0l0 1.546875q0.453125 -0.765625 1.25 -1.1875q0.796875 -0.421875 1.84375 -0.421875q1.046875 0 1.828125 0.453125q0.78125 0.453125 1.15625 1.328125q0.46875 -0.828125 1.328125 -1.296875q0.875 -0.484375 2.0 -0.484375zm9.961151 8.5625q-1.21875 0 -2.203125 -0.546875q-0.96875 -0.5625 -1.53125 -1.53125q-0.5625 -0.96875 -0.5625 -2.203125q0 -1.234375 0.5625 -2.203125q0.5625 -0.984375 1.53125 -1.53125q0.984375 -0.546875 2.203125 -0.546875q1.203125 0 2.171875 0.546875q0.984375 0.546875 1.53125 1.53125q0.5625 0.96875 0.5625 2.203125q0 1.234375 -0.5625 2.203125q-0.546875 0.96875 -1.53125 1.53125q-0.96875 0.546875 -2.171875 0.546875zm0 -1.0q0.890625 0 1.59375 -0.40625q0.71875 -0.421875 1.109375 -1.171875q0.40625 -0.75 0.40625 -1.703125q0 -0.96875 -0.40625 -1.71875q-0.390625 -0.75 -1.109375 -1.15625q-0.703125 -0.40625 -1.59375 -0.40625q-0.90625 0 -1.625 0.40625q-0.703125 0.40625 -1.109375 1.15625q-0.40625 0.75 -0.40625 1.71875q0 0.953125 0.40625 1.703125q0.40625 0.75 1.109375 1.171875q0.71875 0.40625 1.625 0.40625zm8.844513 1.0q-1.03125 0 -1.96875 -0.296875q-0.9375 -0.296875 -1.453125 -0.734375l0.5 -0.90625q0.53125 0.421875 1.328125 0.6875q0.8125 0.265625 1.671875 0.265625q1.15625 0 1.703125 -0.359375q0.546875 -0.359375 0.546875 -1.015625q0 -0.46875 -0.3125 -0.734375q-0.296875 -0.265625 -0.765625 -0.390625q-0.453125 -0.140625 -1.21875 -0.28125q-1.03125 -0.1875 -1.65625 -0.375q-0.625 -0.203125 -1.0625 -0.6875q-0.4375 -0.484375 -0.4375 -1.328125q0 -1.0625 0.875 -1.734375q0.890625 -0.671875 2.453125 -0.671875q0.8125 0 1.625 0.21875q0.828125 0.21875 1.359375 0.5625l-0.5 0.921875q-1.046875 -0.71875 -2.484375 -0.71875q-1.09375 0 -1.640625 0.390625q-0.546875 0.375 -0.546875 1.0q0 0.484375 0.3125 0.765625q0.3125 0.28125 0.765625 0.421875q0.46875 0.140625 1.28125 0.28125q1.015625 0.1875 1.625 0.390625q0.609375 0.1875 1.03125 0.65625q0.4375 0.453125 0.4375 1.28125q0 1.09375 -0.921875 1.75q-0.921875 0.640625 -2.546875 0.640625zm9.01152 0q-1.21875 0 -2.203125 -0.546875q-0.96875 -0.5625 -1.53125 -1.53125q-0.5625 -0.96875 -0.5625 -2.203125q0 -1.234375 0.5625 -2.203125q0.5625 -0.984375 1.53125 -1.53125q0.984375 -0.546875 2.203125 -0.546875q1.203125 0 2.171875 0.546875q0.984375 0.546875 1.53125 1.53125q0.5625 0.96875 0.5625 2.203125q0 1.234375 -0.5625 2.203125q-0.546875 0.96875 -1.53125 1.53125q-0.96875 0.546875 -2.171875 0.546875zm0 -1.0q0.890625 0 1.59375 -0.40625q0.71875 -0.421875 1.109375 -1.171875q0.40625 -0.75 0.40625 -1.703125q0 -0.96875 -0.40625 -1.71875q-0.390625 -0.75 -1.109375 -1.15625q-0.703125 -0.40625 -1.59375 -0.40625q-0.90625 0 -1.625 0.40625q-0.703125 0.40625 -1.109375 1.15625q-0.40625 0.75 -0.40625 1.71875q0 0.953125 0.40625 1.703125q0.40625 0.75 1.109375 1.171875q0.71875 0.40625 1.625 0.40625zm17.078888 -7.5625q1.578125 0 2.484375 0.921875q0.90625 0.90625 0.90625 2.6875l0 4.875l-1.125 0l0 -4.765625q0 -1.3125 -0.640625 -2.0q-0.625 -0.6875 -1.78125 -0.6875q-1.3125 0 -2.0625 0.8125q-0.75 0.796875 -0.75 2.21875l0 4.421875l-1.140625 0l0 -4.765625q0 -1.3125 -0.640625 -2.0q-0.625 -0.6875 -1.796875 -0.6875q-1.296875 0 -2.0625 0.8125q-0.75 0.796875 -0.75 2.21875l0 4.421875l-1.140625 0l0 -8.421875l1.09375 0l0 1.546875q0.453125 -0.765625 1.25 -1.1875q0.796875 -0.421875 1.84375 -0.421875q1.046875 0 1.828125 0.453125q0.78125 0.453125 1.15625 1.328125q0.46875 -0.828125 1.328125 -1.296875q0.875 -0.484375 2.0 -0.484375zm13.836151 4.625l-7.03125 0q0.09375 1.3125 1.0 2.125q0.921875 0.8125 2.3125 0.8125q0.78125 0 1.4375 -0.28125q0.65625 -0.28125 1.140625 -0.828125l0.640625 0.734375q-0.5625 0.671875 -1.40625 1.03125q-0.84375 0.34375 -1.84375 0.34375q-1.296875 0 -2.296875 -0.546875q-1.0 -0.5625 -1.5625 -1.53125q-0.5625 -0.96875 -0.5625 -2.203125q0 -1.234375 0.53125 -2.203125q0.546875 -0.984375 1.484375 -1.53125q0.9375 -0.546875 2.09375 -0.546875q1.171875 0 2.09375 0.546875q0.9375 0.546875 1.453125 1.515625q0.53125 0.96875 0.53125 2.21875l-0.015625 0.34375zm-4.0625 -3.640625q-1.21875 0 -2.046875 0.78125q-0.8125 0.765625 -0.921875 2.015625l5.96875 0q-0.109375 -1.25 -0.9375 -2.015625q-0.828125 -0.78125 -2.0625 -0.78125z" fill-rule="nonzero"/><path fill="#000000" fill-opacity="0.0" d="m211.80315 53.02362l0 0c0 -2.167675 0.8611145 -4.246567 2.3938904 -5.7793427c1.5327759 -1.5327797 3.6116638 -2.3938828 5.7793427 -2.3938828l1.8897552 0l0 0c4.513962 0 8.173233 -3.6592789 8.173233 -8.173229l0 0c0 4.5139503 3.6592865 8.173229 8.173233 8.173229l1.8897552 0c4.513962 0 8.173233 3.6592789 8.173233 8.173225z" fill-rule="evenodd"/><path fill="#000000" fill-opacity="0.0" d="m211.80315 53.02362l0 0c0 -2.167675 0.8611145 -4.246567 2.3938904 -5.7793427c1.5327759 -1.5327797 3.6116638 -2.3938828 5.7793427 -2.3938828l1.8897552 0l0 0c4.513962 0 8.173233 -3.6592789 8.173233 -8.173229l0 0c0 4.5139503 3.6592865 8.173229 8.173233 8.173229l1.8897552 0c4.513962 0 8.173233 3.6592789 8.173233 8.173225" fill-rule="evenodd"/><path stroke="#000000" stroke-width="1.0" stroke-linejoin="round" stroke-linecap="butt" d="m211.80315 53.02362l0 0c0 -2.167675 0.8611145 -4.246567 2.3938904 -5.7793427c1.5327759 -1.5327797 3.6116638 -2.3938828 5.7793427 -2.3938828l1.8897552 0l0 0c4.513962 0 8.173233 -3.6592789 8.173233 -8.173229l0 0c0 4.5139503 3.6592865 8.173229 8.173233 8.173229l1.8897552 0c4.513962 0 8.173233 3.6592789 8.173233 8.173225" fill-rule="evenodd"/><path fill="#000000" fill-opacity="0.0" d="m158.93701 5.874016l142.20471 0l0 30.80315l-142.20471 0z" fill-rule="evenodd"/><path fill="#000000" d="m218.47809 21.54184l1.125 0l0 4.265625q-0.78125 0.6875 -1.859375 1.0625q-1.0625 0.359375 -2.25 0.359375q-1.671875 0 -3.015625 -0.734375q-1.34375 -0.734375 -2.125 -2.03125q-0.765625 -1.3125 -0.765625 -2.921875q0 -1.625 0.765625 -2.921875q0.78125 -1.3125 2.125 -2.046875q1.34375 -0.734375 3.03125 -0.734375q1.28125 0 2.34375 0.40625q1.078125 0.40625 1.8125 1.203125l-0.734375 0.765625q-1.328125 -1.3125 -3.375 -1.3125q-1.359375 0 -2.453125 0.59375q-1.09375 0.59375 -1.71875 1.671875q-0.625 1.0625 -0.625 2.375q0 1.3125 0.625 2.375q0.625 1.046875 1.703125 1.65625q1.09375 0.609375 2.453125 0.609375q1.734375 0 2.9375 -0.875l0 -3.765625zm11.555527 1.734375l-7.03125 0q0.09375 1.3125 1.0 2.125q0.921875 0.8125 2.3125 0.8125q0.78125 0 1.4375 -0.28125q0.65625 -0.28125 1.140625 -0.828125l0.640625 0.734375q-0.5625 0.671875 -1.40625 1.03125q-0.84375 0.34375 -1.84375 0.34375q-1.296875 0 -2.296875 -0.546875q-1.0 -0.5625 -1.5625 -1.53125q-0.5625 -0.96875 -0.5625 -2.203125q0 -1.234375 0.53125 -2.203125q0.546875 -0.984375 1.484375 -1.53125q0.9375 -0.546875 2.09375 -0.546875q1.171875 0 2.09375 0.546875q0.9375 0.546875 1.453125 1.515625q0.53125 0.96875 0.53125 2.21875l-0.015625 0.34375zm-4.0625 -3.640625q-1.21875 0 -2.046875 0.78125q-0.8125 0.765625 -0.921875 2.015625l5.96875 0q-0.109375 -1.25 -0.9375 -2.015625q-0.828125 -0.78125 -2.0625 -0.78125zm10.695267 -0.984375q1.578125 0 2.515625 0.921875q0.9375 0.921875 0.9375 2.6875l0 4.875l-1.140625 0l0 -4.765625q0 -1.3125 -0.65625 -2.0q-0.65625 -0.6875 -1.875 -0.6875q-1.359375 0 -2.15625 0.8125q-0.78125 0.796875 -0.78125 2.21875l0 4.421875l-1.140625 0l0 -8.421875l1.09375 0l0 1.5625q0.46875 -0.765625 1.28125 -1.1875q0.828125 -0.4375 1.921875 -0.4375zm13.895264 4.625l-7.03125 0q0.09375 1.3125 1.0 2.125q0.921875 0.8125 2.3125 0.8125q0.78125 0 1.4375 -0.28125q0.65625 -0.28125 1.140625 -0.828125l0.640625 0.734375q-0.5625 0.671875 -1.40625 1.03125q-0.84375 0.34375 -1.84375 0.34375q-1.296875 0 -2.296875 -0.546875q-1.0 -0.5625 -1.5625 -1.53125q-0.5625 -0.96875 -0.5625 -2.203125q0 -1.234375 0.53125 -2.203125q0.546875 -0.984375 1.484375 -1.53125q0.9375 -0.546875 2.09375 -0.546875q1.171875 0 2.09375 0.546875q0.9375 0.546875 1.453125 1.515625q0.53125 0.96875 0.53125 2.21875l-0.015625 0.34375zm-4.0625 -3.640625q-1.21875 0 -2.046875 0.78125q-0.8125 0.765625 -0.921875 2.015625l5.96875 0q-0.109375 -1.25 -0.9375 -2.015625q-0.828125 -0.78125 -2.0625 -0.78125z" fill-rule="nonzero"/></g></svg>