<svg version="1.1" viewBox="0.0 0.0 383.95538057742783 585.4514435695538" fill="none" stroke="none" stroke-linecap="square" stroke-miterlimit="10" xmlns:xlink="http://www.w3.org/1999/xlink" xmlns="http://www.w3.org/2000/svg"><clipPath id="p.0"><path d="m0 0l383.95538 0l0 585.4514l-383.95538 0l0 -585.4514z" clip-rule="nonzero"/></clipPath><g clip-path="url(#p.0)"><path fill="#000000" fill-opacity="0.0" d="m0 0l383.95538 0l0 585.4514l-383.95538 0z" fill-rule="evenodd"/><path fill="#ffffff" d="m-9.073491 -3.2020998l402.3937 0l0 595.0551l-402.3937 0z" fill-rule="evenodd"/><path fill="#649d66" d="m200.2021 24.362206l0 0c0 -9.897639 8.023621 -17.92126 17.92125 -17.92126l0 0c4.7530212 0 9.311371 1.8881273 12.672256 5.249016c3.3608856 3.3608885 5.249008 7.9192314 5.249008 12.672245l0 0c0 9.897636 -8.023621 17.92126 -17.921265 17.92126l0 0c-9.897629 0 -17.92125 -8.023624 -17.92125 -17.92126z" fill-rule="evenodd"/><path stroke="#d9d9d9" stroke-width="1.0" stroke-linejoin="round" stroke-linecap="butt" d="m200.2021 24.362206l0 0c0 -9.897639 8.023621 -17.92126 17.92125 -17.92126l0 0c4.7530212 0 9.311371 1.8881273 12.672256 5.249016c3.3608856 3.3608885 5.249008 7.9192314 5.249008 12.672245l0 0c0 9.897636 -8.023621 17.92126 -17.921265 17.92126l0 0c-9.897629 0 -17.92125 -8.023624 -17.92125 -17.92126z" fill-rule="evenodd"/><path fill="#649d66" d="m129.14699 82.52756l177.95274 0l0 32.692917l-177.95274 0z" fill-rule="evenodd"/><path stroke="#d9d9d9" stroke-width="1.0" stroke-linejoin="round" stroke-linecap="butt" d="m129.14699 82.52756l177.95274 0l0 32.692917l-177.95274 0z" fill-rule="evenodd"/><path fill="#ffffff" d="m151.43134 93.53089l1.1875 0l0 11.203125l-1.1875 0l0 -11.203125zm8.878891 2.71875q1.578125 0 2.515625 0.921875q0.9375 0.921875 0.9375 2.6875l0 4.875l-1.140625 0l0 -4.765625q0 -1.3125 -0.65625 -2.0q-0.65625 -0.6875 -1.875 -0.6875q-1.359375 0 -2.15625 0.8125q-0.78125 0.796875 -0.78125 2.21875l0 4.421875l-1.140625 0l0 -8.421875l1.09375 0l0 1.5625q0.46875 -0.765625 1.28125 -1.1875q0.828125 -0.4375 1.921875 -0.4375zm6.535141 0.0625l1.140625 0l0 8.421875l-1.140625 0l0 -8.421875zm0.578125 -1.828125q-0.359375 0 -0.59375 -0.234375q-0.234375 -0.25 -0.234375 -0.59375q0 -0.3125 0.234375 -0.546875q0.234375 -0.25 0.59375 -0.25q0.34375 0 0.578125 0.234375q0.25 0.234375 0.25 0.546875q0 0.359375 -0.25 0.609375q-0.234375 0.234375 -0.578125 0.234375zm8.163391 9.734375q-0.3125 0.296875 -0.796875 0.453125q-0.46875 0.140625 -0.984375 0.140625q-1.171875 0 -1.8125 -0.640625q-0.640625 -0.640625 -0.640625 -1.8125l0 -5.078125l-1.515625 0l0 -0.96875l1.515625 0l0 -1.828125l1.125 0l0 1.828125l2.5625 0l0 0.96875l-2.5625 0l0 5.015625q0 0.75 0.375 1.15625q0.375 0.390625 1.09375 0.390625q0.34375 0 0.671875 -0.109375q0.328125 -0.125 0.5625 -0.328125l0.40625 0.8125zm2.0585175 -7.90625l1.140625 0l0 8.421875l-1.140625 0l0 -8.421875zm0.578125 -1.828125q-0.359375 0 -0.59375 -0.234375q-0.234375 -0.25 -0.234375 -0.59375q0 -0.3125 0.234375 -0.546875q0.234375 -0.25 0.59375 -0.25q0.34375 0 0.578125 0.234375q0.25 0.234375 0.25 0.546875q0 0.359375 -0.25 0.609375q-0.234375 0.234375 -0.578125 0.234375zm6.679016 1.765625q1.640625 0 2.515625 0.828125q0.890625 0.828125 0.890625 2.4375l0 5.21875l-1.09375 0l0 -1.3125q-0.375 0.65625 -1.125 1.03125q-0.75 0.359375 -1.765625 0.359375q-1.40625 0 -2.25 -0.671875q-0.828125 -0.671875 -0.828125 -1.78125q0 -1.0625 0.78125 -1.71875q0.78125 -0.65625 2.46875 -0.65625l2.671875 0l0 -0.515625q0 -1.09375 -0.609375 -1.65625q-0.609375 -0.5625 -1.765625 -0.5625q-0.8125 0 -1.546875 0.265625q-0.734375 0.265625 -1.265625 0.71875l-0.5 -0.84375q0.640625 -0.546875 1.53125 -0.84375q0.890625 -0.296875 1.890625 -0.296875zm-0.40625 7.671875q0.96875 0 1.65625 -0.4375q0.6875 -0.453125 1.015625 -1.28125l0 -1.375l-2.640625 0q-2.15625 0 -2.15625 1.5q0 0.75 0.5625 1.171875q0.5625 0.421875 1.5625 0.421875zm6.8931427 -11.0625l1.140625 0l0 11.875l-1.140625 0l0 -11.875zm12.933517 0.671875q2.140625 0 3.359375 1.03125q1.21875 1.015625 1.21875 2.8125q0 1.796875 -1.21875 2.8125q-1.21875 1.015625 -3.359375 1.015625l-3.0 0l0 3.53125l-1.1875 0l0 -11.203125l4.1875 0zm-0.03125 6.625q1.65625 0 2.53125 -0.71875q0.890625 -0.734375 0.890625 -2.0625q0 -1.359375 -0.890625 -2.078125q-0.875 -0.734375 -2.53125 -0.734375l-2.96875 0l0 5.59375l2.96875 0zm10.326904 4.65625q-1.21875 0 -2.203125 -0.546875q-0.96875 -0.5625 -1.53125 -1.53125q-0.5625 -0.96875 -0.5625 -2.203125q0 -1.234375 0.5625 -2.203125q0.5625 -0.984375 1.53125 -1.53125q0.984375 -0.546875 2.203125 -0.546875q1.203125 0 2.171875 0.546875q0.984375 0.546875 1.53125 1.53125q0.5625 0.96875 0.5625 2.203125q0 1.234375 -0.5625 2.203125q-0.546875 0.96875 -1.53125 1.53125q-0.96875 0.546875 -2.171875 0.546875zm0 -1.0q0.890625 0 1.59375 -0.40625q0.71875 -0.421875 1.109375 -1.171875q0.40625 -0.75 0.40625 -1.703125q0 -0.96875 -0.40625 -1.71875q-0.390625 -0.75 -1.109375 -1.15625q-0.703125 -0.40625 -1.59375 -0.40625q-0.90625 0 -1.625 0.40625q-0.703125 0.40625 -1.109375 1.15625q-0.40625 0.75 -0.40625 1.71875q0 0.953125 0.40625 1.703125q0.40625 0.75 1.109375 1.171875q0.71875 0.40625 1.625 0.40625zm10.922638 -7.5625q1.1875 0 2.140625 0.546875q0.96875 0.53125 1.5 1.515625q0.546875 0.96875 0.546875 2.21875q0 1.265625 -0.546875 2.25q-0.53125 0.96875 -1.484375 1.5q-0.953125 0.53125 -2.15625 0.53125q-1.03125 0 -1.859375 -0.421875q-0.8125 -0.421875 -1.34375 -1.234375l0 4.6875l-1.140625 0l0 -11.53125l1.09375 0l0 1.671875q0.515625 -0.828125 1.34375 -1.28125q0.84375 -0.453125 1.90625 -0.453125zm-0.078125 7.5625q0.875 0 1.59375 -0.40625q0.71875 -0.421875 1.125 -1.171875q0.40625 -0.75 0.40625 -1.703125q0 -0.96875 -0.40625 -1.703125q-0.40625 -0.75 -1.125 -1.15625q-0.71875 -0.421875 -1.59375 -0.421875q-0.90625 0 -1.625 0.421875q-0.703125 0.40625 -1.109375 1.15625q-0.40625 0.734375 -0.40625 1.703125q0 0.953125 0.40625 1.703125q0.40625 0.75 1.109375 1.171875q0.71875 0.40625 1.625 0.40625zm14.176147 -7.5l0 8.421875l-1.09375 0l0 -1.53125q-0.453125 0.765625 -1.234375 1.1875q-0.78125 0.421875 -1.78125 0.421875q-1.65625 0 -2.609375 -0.921875q-0.953125 -0.921875 -0.953125 -2.6875l0 -4.890625l1.140625 0l0 4.78125q0 1.328125 0.65625 2.015625q0.65625 0.6875 1.875 0.6875q1.328125 0 2.09375 -0.8125q0.765625 -0.8125 0.765625 -2.25l0 -4.421875l1.140625 0zm3.1742706 -3.453125l1.140625 0l0 11.875l-1.140625 0l0 -11.875zm7.257141 3.390625q1.640625 0 2.515625 0.828125q0.890625 0.828125 0.890625 2.4375l0 5.21875l-1.09375 0l0 -1.3125q-0.375 0.65625 -1.125 1.03125q-0.75 0.359375 -1.765625 0.359375q-1.40625 0 -2.25 -0.671875q-0.828125 -0.671875 -0.828125 -1.78125q0 -1.0625 0.78125 -1.71875q0.78125 -0.65625 2.46875 -0.65625l2.671875 0l0 -0.515625q0 -1.09375 -0.609375 -1.65625q-0.609375 -0.5625 -1.765625 -0.5625q-0.8125 0 -1.546875 0.265625q-0.734375 0.265625 -1.265625 0.71875l-0.5 -0.84375q0.640625 -0.546875 1.53125 -0.84375q0.890625 -0.296875 1.890625 -0.296875zm-0.40625 7.671875q0.96875 0 1.65625 -0.4375q0.6875 -0.453125 1.015625 -1.28125l0 -1.375l-2.640625 0q-2.15625 0 -2.15625 1.5q0 0.75 0.5625 1.171875q0.5625 0.421875 1.5625 0.421875zm11.330627 0.296875q-0.3125 0.296875 -0.796875 0.453125q-0.46875 0.140625 -0.984375 0.140625q-1.171875 0 -1.8125 -0.640625q-0.6405945 -0.640625 -0.6405945 -1.8125l0 -5.078125l-1.5156403 0l0 -0.96875l1.5156403 0l0 -1.828125l1.1249695 0l0 1.828125l2.5625 0l0 0.96875l-2.5625 0l0 5.015625q0 0.75 0.375 1.15625q0.375 0.390625 1.09375 0.390625q0.34375 0 0.671875 -0.109375q0.328125 -0.125 0.5625 -0.328125l0.40625 0.8125zm2.0585327 -7.90625l1.140625 0l0 8.421875l-1.140625 0l0 -8.421875zm0.578125 -1.828125q-0.359375 0 -0.59375 -0.234375q-0.234375 -0.25 -0.234375 -0.59375q0 -0.3125 0.234375 -0.546875q0.234375 -0.25 0.59375 -0.25q0.34375 0 0.578125 0.234375q0.25 0.234375 0.25 0.546875q0 0.359375 -0.25 0.609375q-0.234375 0.234375 -0.578125 0.234375zm7.179016 10.328125q-1.21875 0 -2.203125 -0.546875q-0.96875 -0.5625 -1.53125 -1.53125q-0.5625 -0.96875 -0.5625 -2.203125q0 -1.234375 0.5625 -2.203125q0.5625 -0.984375 1.53125 -1.53125q0.984375 -0.546875 2.203125 -0.546875q1.203125 0 2.171875 0.546875q0.984375 0.546875 1.53125 1.53125q0.5625 0.96875 0.5625 2.203125q0 1.234375 -0.5625 2.203125q-0.546875 0.96875 -1.53125 1.53125q-0.96875 0.546875 -2.171875 0.546875zm0 -1.0q0.890625 0 1.59375 -0.40625q0.71875 -0.421875 1.109375 -1.171875q0.40625 -0.75 0.40625 -1.703125q0 -0.96875 -0.40625 -1.71875q-0.390625 -0.75 -1.109375 -1.15625q-0.703125 -0.40625 -1.59375 -0.40625q-0.90625 0 -1.625 0.40625q-0.703125 0.40625 -1.109375 1.15625q-0.40625 0.75 -0.40625 1.71875q0 0.953125 0.40625 1.703125q0.40625 0.75 1.109375 1.171875q0.71875 0.40625 1.625 0.40625zm10.875763 -7.5625q1.578125 0 2.515625 0.921875q0.9375 0.921875 0.9375 2.6875l0 4.875l-1.140625 0l0 -4.765625q0 -1.3125 -0.65625 -2.0q-0.65625 -0.6875 -1.875 -0.6875q-1.359375 0 -2.15625 0.8125q-0.78125 0.796875 -0.78125 2.21875l0 4.421875l-1.140625 0l0 -8.421875l1.09375 0l0 1.5625q0.46875 -0.765625 1.28125 -1.1875q0.828125 -0.4375 1.921875 -0.4375z" fill-rule="nonzero"/><path fill="#649d66" d="m129.14699 150.44095l177.95274 0l0 32.692917l-177.95274 0z" fill-rule="evenodd"/><path stroke="#d9d9d9" stroke-width="1.0" stroke-linejoin="round" stroke-linecap="butt" d="m129.14699 150.44095l177.95274 0l0 32.692917l-177.95274 0z" fill-rule="evenodd"/><path fill="#ffffff" d="m154.45087 162.47552l0 4.390625l5.78125 0l0 1.03125l-5.78125 0l0 4.75l-1.1875 0l0 -11.203125l7.671875 0l0 1.03125l-6.484375 0zm8.530518 1.75l1.140625 0l0 8.421875l-1.140625 0l0 -8.421875zm0.578125 -1.828125q-0.359375 0 -0.59375 -0.234375q-0.234375 -0.25 -0.234375 -0.59375q0 -0.3125 0.234375 -0.546875q0.234375 -0.25 0.59375 -0.25q0.34375 0 0.578125 0.234375q0.25 0.234375 0.25 0.546875q0 0.359375 -0.25 0.609375q-0.234375 0.234375 -0.578125 0.234375zm8.163391 9.734375q-0.3125 0.296875 -0.796875 0.453125q-0.46875 0.140625 -0.984375 0.140625q-1.171875 0 -1.8125 -0.640625q-0.640625 -0.640625 -0.640625 -1.8125l0 -5.078125l-1.515625 0l0 -0.96875l1.515625 0l0 -1.828125l1.125 0l0 1.828125l2.5625 0l0 0.96875l-2.5625 0l0 5.015625q0 0.75 0.375 1.15625q0.375 0.390625 1.09375 0.390625q0.34375 0 0.671875 -0.109375q0.328125 -0.125 0.5625 -0.328125l0.40625 0.8125zm6.3553925 -7.96875q1.578125 0 2.515625 0.921875q0.9375 0.921875 0.9375 2.6875l0 4.875l-1.140625 0l0 -4.765625q0 -1.3125 -0.65625 -2.0q-0.65625 -0.6875 -1.875 -0.6875q-1.359375 0 -2.15625 0.8125q-0.78125 0.796875 -0.78125 2.21875l0 4.421875l-1.140625 0l0 -8.421875l1.09375 0l0 1.5625q0.46875 -0.765625 1.28125 -1.1875q0.828125 -0.4375 1.921875 -0.4375zm13.895264 4.625l-7.03125 0q0.09375 1.3125 1.0 2.125q0.921875 0.8125 2.3125 0.8125q0.78125 0 1.4375 -0.28125q0.65625 -0.28125 1.140625 -0.828125l0.640625 0.734375q-0.5625 0.671875 -1.40625 1.03125q-0.84375 0.34375 -1.84375 0.34375q-1.296875 0 -2.296875 -0.546875q-1.0 -0.5625 -1.5625 -1.53125q-0.5625 -0.96875 -0.5625 -2.203125q0 -1.234375 0.53125 -2.203125q0.546875 -0.984375 1.484375 -1.53125q0.9375 -0.546875 2.09375 -0.546875q1.171875 0 2.09375 0.546875q0.9375 0.546875 1.453125 1.515625q0.53125 0.96875 0.53125 2.21875l-0.015625 0.34375zm-4.0625 -3.640625q-1.21875 0 -2.046875 0.78125q-0.8125 0.765625 -0.921875 2.015625l5.96875 0q-0.109375 -1.25 -0.9375 -2.015625q-0.828125 -0.78125 -2.0625 -0.78125zm8.664017 7.578125q-1.03125 0 -1.96875 -0.296875q-0.9375 -0.296875 -1.453125 -0.734375l0.5 -0.90625q0.53125 0.421875 1.328125 0.6875q0.8125 0.265625 1.671875 0.265625q1.15625 0 1.703125 -0.359375q0.546875 -0.359375 0.546875 -1.015625q0 -0.46875 -0.3125 -0.734375q-0.296875 -0.265625 -0.765625 -0.390625q-0.453125 -0.140625 -1.21875 -0.28125q-1.03125 -0.1875 -1.65625 -0.375q-0.625 -0.203125 -1.0625 -0.6875q-0.4375 -0.484375 -0.4375 -1.328125q0 -1.0625 0.875 -1.734375q0.890625 -0.671875 2.453125 -0.671875q0.8125 0 1.625 0.21875q0.828125 0.21875 1.359375 0.5625l-0.5 0.921875q-1.046875 -0.71875 -2.484375 -0.71875q-1.09375 0 -1.640625 0.390625q-0.546875 0.375 -0.546875 1.0q0 0.484375 0.3125 0.765625q0.3125 0.28125 0.765625 0.421875q0.46875 0.140625 1.28125 0.28125q1.015625 0.1875 1.625 0.390625q0.609375 0.1875 1.03125 0.65625q0.4375 0.453125 0.4375 1.28125q0 1.09375 -0.921875 1.75q-0.921875 0.640625 -2.546875 0.640625zm7.8240204 0q-1.03125 0 -1.96875 -0.296875q-0.9375 -0.296875 -1.453125 -0.734375l0.5 -0.90625q0.53125 0.421875 1.328125 0.6875q0.8125 0.265625 1.671875 0.265625q1.15625 0 1.703125 -0.359375q0.546875 -0.359375 0.546875 -1.015625q0 -0.46875 -0.3125 -0.734375q-0.296875 -0.265625 -0.765625 -0.390625q-0.453125 -0.140625 -1.21875 -0.28125q-1.03125 -0.1875 -1.65625 -0.375q-0.625 -0.203125 -1.0625 -0.6875q-0.4375 -0.484375 -0.4375 -1.328125q0 -1.0625 0.875 -1.734375q0.890625 -0.671875 2.453125 -0.671875q0.8125 0 1.625 0.21875q0.828125 0.21875 1.359375 0.5625l-0.5 0.921875q-1.046875 -0.71875 -2.484375 -0.71875q-1.09375 0 -1.640625 0.390625q-0.546875 0.375 -0.546875 1.0q0 0.484375 0.3125 0.765625q0.3125 0.28125 0.765625 0.421875q0.46875 0.140625 1.28125 0.28125q1.015625 0.1875 1.625 0.390625q0.609375 0.1875 1.03125 0.65625q0.4375 0.453125 0.4375 1.28125q0 1.09375 -0.921875 1.75q-0.921875 0.640625 -2.546875 0.640625zm11.187897 -10.25l0 4.390625l5.78125 0l0 1.03125l-5.78125 0l0 4.75l-1.1875 0l0 -11.203125l7.671875 0l0 1.03125l-6.484375 0zm15.996277 1.75l0 8.421875l-1.09375 0l0 -1.53125q-0.453125 0.765625 -1.234375 1.1875q-0.78125 0.421875 -1.78125 0.421875q-1.65625 0 -2.609375 -0.921875q-0.953125 -0.921875 -0.953125 -2.6875l0 -4.890625l1.140625 0l0 4.78125q0 1.328125 0.65625 2.015625q0.65625 0.6875 1.875 0.6875q1.328125 0 2.09375 -0.8125q0.765625 -0.8125 0.765625 -2.25l0 -4.421875l1.140625 0zm7.4711456 -0.0625q1.578125 0 2.515625 0.921875q0.9375 0.921875 0.9375 2.6875l0 4.875l-1.140625 0l0 -4.765625q0 -1.3125 -0.65625 -2.0q-0.65625 -0.6875 -1.875 -0.6875q-1.359375 0 -2.15625 0.8125q-0.78125 0.796875 -0.78125 2.21875l0 4.421875l-1.140625 0l0 -8.421875l1.09375 0l0 1.5625q0.46875 -0.765625 1.28125 -1.1875q0.828125 -0.4375 1.921875 -0.4375zm10.067139 8.5625q-1.25 0 -2.234375 -0.546875q-0.984375 -0.546875 -1.546875 -1.515625q-0.5625 -0.984375 -0.5625 -2.21875q0 -1.234375 0.5625 -2.203125q0.5625 -0.984375 1.546875 -1.53125q0.984375 -0.546875 2.234375 -0.546875q1.078125 0 1.9375 0.4375q0.859375 0.421875 1.359375 1.234375l-0.859375 0.578125q-0.40625 -0.625 -1.046875 -0.9375q-0.640625 -0.3125 -1.390625 -0.3125q-0.921875 0 -1.65625 0.40625q-0.71875 0.40625 -1.125 1.15625q-0.40625 0.75 -0.40625 1.71875q0 0.96875 0.40625 1.71875q0.40625 0.734375 1.125 1.15625q0.734375 0.40625 1.65625 0.40625q0.75 0 1.390625 -0.296875q0.640625 -0.3125 1.046875 -0.9375l0.859375 0.578125q-0.5 0.8125 -1.375 1.234375q-0.859375 0.421875 -1.921875 0.421875zm10.041504 -0.59375q-0.3125 0.296875 -0.796875 0.453125q-0.46875 0.140625 -0.984375 0.140625q-1.171875 0 -1.8125 -0.640625q-0.640625 -0.640625 -0.640625 -1.8125l0 -5.078125l-1.515625 0l0 -0.96875l1.515625 0l0 -1.828125l1.125 0l0 1.828125l2.5625 0l0 0.96875l-2.5625 0l0 5.015625q0 0.75 0.375 1.15625q0.375 0.390625 1.09375 0.390625q0.34375 0 0.671875 -0.109375q0.328125 -0.125 0.5625 -0.328125l0.40625 0.8125zm2.0585022 -7.90625l1.140625 0l0 8.421875l-1.140625 0l0 -8.421875zm0.578125 -1.828125q-0.359375 0 -0.59375 -0.234375q-0.234375 -0.25 -0.234375 -0.59375q0 -0.3125 0.234375 -0.546875q0.234375 -0.25 0.59375 -0.25q0.34375 0 0.578125 0.234375q0.25 0.234375 0.25 0.546875q0 0.359375 -0.25 0.609375q-0.234375 0.234375 -0.578125 0.234375zm7.179016 10.328125q-1.21875 0 -2.203125 -0.546875q-0.96875 -0.5625 -1.53125 -1.53125q-0.5625 -0.96875 -0.5625 -2.203125q0 -1.234375 0.5625 -2.203125q0.5625 -0.984375 1.53125 -1.53125q0.984375 -0.546875 2.203125 -0.546875q1.203125 0 2.171875 0.546875q0.984375 0.546875 1.53125 1.53125q0.5625 0.96875 0.5625 2.203125q0 1.234375 -0.5625 2.203125q-0.546875 0.96875 -1.53125 1.53125q-0.96875 0.546875 -2.171875 0.546875zm0 -1.0q0.890625 0 1.59375 -0.40625q0.71875 -0.421875 1.109375 -1.171875q0.40625 -0.75 0.40625 -1.703125q0 -0.96875 -0.40625 -1.71875q-0.390625 -0.75 -1.109375 -1.15625q-0.703125 -0.40625 -1.59375 -0.40625q-0.90625 0 -1.625 0.40625q-0.703125 0.40625 -1.109375 1.15625q-0.40625 0.75 -0.40625 1.71875q0 0.953125 0.40625 1.703125q0.40625 0.75 1.109375 1.171875q0.71875 0.40625 1.625 0.40625zm10.875763 -7.5625q1.578125 0 2.515625 0.921875q0.9375 0.921875 0.9375 2.6875l0 4.875l-1.140625 0l0 -4.765625q0 -1.3125 -0.65625 -2.0q-0.65625 -0.6875 -1.875 -0.6875q-1.359375 0 -2.15625 0.8125q-0.78125 0.796875 -0.78125 2.21875l0 4.421875l-1.140625 0l0 -8.421875l1.09375 0l0 1.5625q0.46875 -0.765625 1.28125 -1.1875q0.828125 -0.4375 1.921875 -0.4375z" fill-rule="nonzero"/><path fill="#649d66" d="m129.14699 370.55118l177.95274 0l0 32.6929l-177.95274 0z" fill-rule="evenodd"/><path stroke="#d9d9d9" stroke-width="1.0" stroke-linejoin="round" stroke-linecap="butt" d="m129.14699 370.55118l177.95274 0l0 32.6929l-177.95274 0z" fill-rule="evenodd"/><path fill="#ffffff" d="m185.90955 392.85138q-1.25 0 -2.390625 -0.390625q-1.140625 -0.40625 -1.765625 -1.0625l0.46875 -0.90625q0.609375 0.609375 1.609375 0.984375q1.015625 0.375 2.078125 0.375q1.515625 0 2.265625 -0.546875q0.75 -0.5625 0.75 -1.4375q0 -0.671875 -0.40625 -1.078125q-0.40625 -0.40625 -1.0 -0.609375q-0.59375 -0.21875 -1.65625 -0.484375q-1.265625 -0.3125 -2.015625 -0.609375q-0.75 -0.296875 -1.28125 -0.90625q-0.53125 -0.609375 -0.53125 -1.640625q0 -0.859375 0.4375 -1.546875q0.453125 -0.703125 1.375 -1.109375q0.9375 -0.421875 2.3125 -0.421875q0.953125 0 1.875 0.265625q0.921875 0.265625 1.59375 0.734375l-0.40625 0.9375q-0.703125 -0.46875 -1.5 -0.6875q-0.796875 -0.234375 -1.5625 -0.234375q-1.46875 0 -2.21875 0.5625q-0.75 0.5625 -0.75 1.46875q0 0.671875 0.40625 1.078125q0.421875 0.40625 1.03125 0.625q0.609375 0.203125 1.65625 0.46875q1.234375 0.296875 1.984375 0.59375q0.765625 0.296875 1.296875 0.90625q0.53125 0.59375 0.53125 1.625q0 0.84375 -0.46875 1.546875q-0.453125 0.6875 -1.40625 1.09375q-0.9375 0.40625 -2.3125 0.40625zm13.840027 -3.953125l-7.03125 0q0.09375 1.3125 1.0 2.125q0.921875 0.8125 2.3125 0.8125q0.78125 0 1.4375 -0.28125q0.65625 -0.28125 1.140625 -0.828125l0.640625 0.734375q-0.5625 0.671875 -1.40625 1.03125q-0.84375 0.34375 -1.84375 0.34375q-1.296875 0 -2.296875 -0.546875q-1.0 -0.5625 -1.5625 -1.53125q-0.5625 -0.96875 -0.5625 -2.203125q0 -1.234375 0.53125 -2.203125q0.546875 -0.984375 1.484375 -1.53125q0.9375 -0.546875 2.09375 -0.546875q1.171875 0 2.09375 0.546875q0.9375 0.546875 1.453125 1.515625q0.53125 0.96875 0.53125 2.21875l-0.015625 0.34375zm-4.0625 -3.640625q-1.21875 0 -2.046875 0.78125q-0.8125 0.765625 -0.921875 2.015625l5.96875 0q-0.109375 -1.25 -0.9375 -2.015625q-0.828125 -0.78125 -2.0625 -0.78125zm6.3983917 -4.375l1.140625 0l0 11.875l-1.140625 0l0 -11.875zm11.632141 8.015625l-7.03125 0q0.09375 1.3125 1.0 2.125q0.921875 0.8125 2.3125 0.8125q0.78125 0 1.4375 -0.28125q0.65625 -0.28125 1.140625 -0.828125l0.640625 0.734375q-0.5625 0.671875 -1.40625 1.03125q-0.84375 0.34375 -1.84375 0.34375q-1.296875 0 -2.296875 -0.546875q-1.0 -0.5625 -1.5625 -1.53125q-0.5625 -0.96875 -0.5625 -2.203125q0 -1.234375 0.53125 -2.203125q0.546875 -0.984375 1.484375 -1.53125q0.9375 -0.546875 2.09375 -0.546875q1.171875 0 2.09375 0.546875q0.9375 0.546875 1.453125 1.515625q0.53125 0.96875 0.53125 2.21875l-0.015625 0.34375zm-4.0625 -3.640625q-1.21875 0 -2.046875 0.78125q-0.8125 0.765625 -0.921875 2.015625l5.96875 0q-0.109375 -1.25 -0.9375 -2.015625q-0.828125 -0.78125 -2.0625 -0.78125zm9.898392 7.578125q-1.25 0 -2.234375 -0.546875q-0.984375 -0.546875 -1.546875 -1.515625q-0.5625 -0.984375 -0.5625 -2.21875q0 -1.234375 0.5625 -2.203125q0.5625 -0.984375 1.546875 -1.53125q0.984375 -0.546875 2.234375 -0.546875q1.078125 0 1.9375 0.4375q0.859375 0.421875 1.359375 1.234375l-0.859375 0.578125q-0.40625 -0.625 -1.046875 -0.9375q-0.640625 -0.3125 -1.390625 -0.3125q-0.921875 0 -1.65625 0.40625q-0.71875 0.40625 -1.125 1.15625q-0.40625 0.75 -0.40625 1.71875q0 0.96875 0.40625 1.71875q0.40625 0.734375 1.125 1.15625q0.734375 0.40625 1.65625 0.40625q0.75 0 1.390625 -0.296875q0.640625 -0.3125 1.046875 -0.9375l0.859375 0.578125q-0.5 0.8125 -1.375 1.234375q-0.859375 0.421875 -1.921875 0.421875zm10.041504 -0.59375q-0.3125 0.296875 -0.796875 0.453125q-0.46875 0.140625 -0.984375 0.140625q-1.171875 0 -1.8125 -0.640625q-0.640625 -0.640625 -0.640625 -1.8125l0 -5.078125l-1.515625 0l0 -0.96875l1.515625 0l0 -1.828125l1.125 0l0 1.828125l2.5625 0l0 0.96875l-2.5625 0l0 5.015625q0 0.75 0.375 1.15625q0.375 0.390625 1.09375 0.390625q0.34375 0 0.671875 -0.109375q0.328125 -0.125 0.5625 -0.328125l0.40625 0.8125zm2.0585175 -7.90625l1.140625 0l0 8.421875l-1.140625 0l0 -8.421875zm0.578125 -1.828125q-0.359375 0 -0.59375 -0.234375q-0.234375 -0.25 -0.234375 -0.59375q0 -0.3125 0.234375 -0.546875q0.234375 -0.25 0.59375 -0.25q0.34375 0 0.578125 0.234375q0.25 0.234375 0.25 0.546875q0 0.359375 -0.25 0.609375q-0.234375 0.234375 -0.578125 0.234375zm7.179016 10.328125q-1.21875 0 -2.203125 -0.546875q-0.96875 -0.5625 -1.53125 -1.53125q-0.5625 -0.96875 -0.5625 -2.203125q0 -1.234375 0.5625 -2.203125q0.5625 -0.984375 1.53125 -1.53125q0.984375 -0.546875 2.203125 -0.546875q1.203125 0 2.171875 0.546875q0.984375 0.546875 1.53125 1.53125q0.5625 0.96875 0.5625 2.203125q0 1.234375 -0.5625 2.203125q-0.546875 0.96875 -1.53125 1.53125q-0.96875 0.546875 -2.171875 0.546875zm0 -1.0q0.890625 0 1.59375 -0.40625q0.71875 -0.421875 1.109375 -1.171875q0.40625 -0.75 0.40625 -1.703125q0 -0.96875 -0.40625 -1.71875q-0.390625 -0.75 -1.109375 -1.15625q-0.703125 -0.40625 -1.59375 -0.40625q-0.90625 0 -1.625 0.40625q-0.703125 0.40625 -1.109375 1.15625q-0.40625 0.75 -0.40625 1.71875q0 0.953125 0.40625 1.703125q0.40625 0.75 1.109375 1.171875q0.71875 0.40625 1.625 0.40625zm10.875763 -7.5625q1.578125 0 2.515625 0.921875q0.9375 0.921875 0.9375 2.6875l0 4.875l-1.140625 0l0 -4.765625q0 -1.3125 -0.65625 -2.0q-0.65625 -0.6875 -1.875 -0.6875q-1.359375 0 -2.15625 0.8125q-0.78125 0.796875 -0.78125 2.21875l0 4.421875l-1.140625 0l0 -8.421875l1.09375 0l0 1.5625q0.46875 -0.765625 1.28125 -1.1875q0.828125 -0.4375 1.921875 -0.4375z" fill-rule="nonzero"/><path fill="#649d66" d="m129.14699 438.46457l177.95274 0l0 32.6929l-177.95274 0z" fill-rule="evenodd"/><path stroke="#d9d9d9" stroke-width="1.0" stroke-linejoin="round" stroke-linecap="butt" d="m129.14699 438.46457l177.95274 0l0 32.6929l-177.95274 0z" fill-rule="evenodd"/><path fill="#ffffff" d="m185.96278 460.76477q-1.65625 0 -3.0 -0.734375q-1.328125 -0.734375 -2.09375 -2.03125q-0.765625 -1.3125 -0.765625 -2.921875q0 -1.625 0.765625 -2.921875q0.765625 -1.3125 2.109375 -2.046875q1.34375 -0.734375 3.0 -0.734375q1.25 0 2.296875 0.421875q1.0625 0.40625 1.796875 1.21875l-0.75 0.75q-1.3125 -1.328125 -3.3125 -1.328125q-1.328125 0 -2.421875 0.609375q-1.078125 0.59375 -1.703125 1.65625q-0.609375 1.0625 -0.609375 2.375q0 1.3125 0.609375 2.375q0.625 1.046875 1.703125 1.65625q1.09375 0.609375 2.421875 0.609375q2.015625 0 3.3125 -1.34375l0.75 0.75q-0.734375 0.796875 -1.796875 1.21875q-1.0625 0.421875 -2.3125 0.421875zm7.4884033 -6.859375q0.40625 -0.84375 1.1875 -1.28125q0.796875 -0.4375 1.96875 -0.4375l0 1.109375l-0.28125 -0.015625q-1.328125 0 -2.078125 0.8125q-0.75 0.8125 -0.75 2.296875l0 4.28125l-1.140625 0l0 -8.421875l1.09375 0l0 1.65625zm8.567398 6.84375q-1.21875 0 -2.203125 -0.546875q-0.96875 -0.5625 -1.53125 -1.53125q-0.5625 -0.96875 -0.5625 -2.203125q0 -1.234375 0.5625 -2.203125q0.5625 -0.984375 1.53125 -1.53125q0.984375 -0.546875 2.203125 -0.546875q1.203125 0 2.171875 0.546875q0.984375 0.546875 1.53125 1.53125q0.5625 0.96875 0.5625 2.203125q0 1.234375 -0.5625 2.203125q-0.546875 0.96875 -1.53125 1.53125q-0.96875 0.546875 -2.171875 0.546875zm0 -1.0q0.890625 0 1.59375 -0.40625q0.71875 -0.421875 1.109375 -1.171875q0.40625 -0.75 0.40625 -1.703125q0 -0.96875 -0.40625 -1.71875q-0.390625 -0.75 -1.109375 -1.15625q-0.703125 -0.40625 -1.59375 -0.40625q-0.90625 0 -1.625 0.40625q-0.703125 0.40625 -1.109375 1.15625q-0.40625 0.75 -0.40625 1.71875q0 0.953125 0.40625 1.703125q0.40625 0.75 1.109375 1.171875q0.71875 0.40625 1.625 0.40625zm8.844513 1.0q-1.03125 0 -1.96875 -0.296875q-0.9375 -0.296875 -1.453125 -0.734375l0.5 -0.90625q0.53125 0.421875 1.328125 0.6875q0.8125 0.265625 1.671875 0.265625q1.15625 0 1.703125 -0.359375q0.546875 -0.359375 0.546875 -1.015625q0 -0.46875 -0.3125 -0.734375q-0.296875 -0.265625 -0.765625 -0.390625q-0.453125 -0.140625 -1.21875 -0.28125q-1.03125 -0.1875 -1.65625 -0.375q-0.625 -0.203125 -1.0625 -0.6875q-0.4375 -0.484375 -0.4375 -1.328125q0 -1.0625 0.875 -1.734375q0.890625 -0.671875 2.453125 -0.671875q0.8125 0 1.625 0.21875q0.828125 0.21875 1.359375 0.5625l-0.5 0.921875q-1.046875 -0.71875 -2.484375 -0.71875q-1.09375 0 -1.640625 0.390625q-0.546875 0.375 -0.546875 1.0q0 0.484375 0.3125 0.765625q0.3125 0.28125 0.765625 0.421875q0.46875 0.140625 1.28125 0.28125q1.015625 0.1875 1.625 0.390625q0.609375 0.1875 1.03125 0.65625q0.4375 0.453125 0.4375 1.28125q0 1.09375 -0.921875 1.75q-0.921875 0.640625 -2.546875 0.640625zm7.8240204 0q-1.03125 0 -1.96875 -0.296875q-0.9375 -0.296875 -1.453125 -0.734375l0.5 -0.90625q0.53125 0.421875 1.328125 0.6875q0.8125 0.265625 1.671875 0.265625q1.15625 0 1.703125 -0.359375q0.546875 -0.359375 0.546875 -1.015625q0 -0.46875 -0.3125 -0.734375q-0.296875 -0.265625 -0.765625 -0.390625q-0.453125 -0.140625 -1.21875 -0.28125q-1.03125 -0.1875 -1.65625 -0.375q-0.625 -0.203125 -1.0625 -0.6875q-0.4375 -0.484375 -0.4375 -1.328125q0 -1.0625 0.875 -1.734375q0.890625 -0.671875 2.453125 -0.671875q0.8125 0 1.625 0.21875q0.828125 0.21875 1.359375 0.5625l-0.5 0.921875q-1.046875 -0.71875 -2.484375 -0.71875q-1.09375 0 -1.640625 0.390625q-0.546875 0.375 -0.546875 1.0q0 0.484375 0.3125 0.765625q0.3125 0.28125 0.765625 0.421875q0.46875 0.140625 1.28125 0.28125q1.015625 0.1875 1.625 0.390625q0.609375 0.1875 1.03125 0.65625q0.4375 0.453125 0.4375 1.28125q0 1.09375 -0.921875 1.75q-0.921875 0.640625 -2.546875 0.640625zm9.01152 0q-1.21875 0 -2.203125 -0.546875q-0.96875 -0.5625 -1.53125 -1.53125q-0.5625 -0.96875 -0.5625 -2.203125q0 -1.234375 0.5625 -2.203125q0.5625 -0.984375 1.53125 -1.53125q0.984375 -0.546875 2.203125 -0.546875q1.203125 0 2.171875 0.546875q0.984375 0.546875 1.53125 1.53125q0.5625 0.96875 0.5625 2.203125q0 1.234375 -0.5625 2.203125q-0.546875 0.96875 -1.53125 1.53125q-0.96875 0.546875 -2.171875 0.546875zm0 -1.0q0.890625 0 1.59375 -0.40625q0.71875 -0.421875 1.109375 -1.171875q0.40625 -0.75 0.40625 -1.703125q0 -0.96875 -0.40625 -1.71875q-0.390625 -0.75 -1.109375 -1.15625q-0.703125 -0.40625 -1.59375 -0.40625q-0.90625 0 -1.625 0.40625q-0.703125 0.40625 -1.109375 1.15625q-0.40625 0.75 -0.40625 1.71875q0 0.953125 0.40625 1.703125q0.40625 0.75 1.109375 1.171875q0.71875 0.40625 1.625 0.40625zm13.417007 -7.5l-3.75 8.421875l-1.15625 0l-3.734375 -8.421875l1.1875 0l3.15625 7.171875l3.171875 -7.171875l1.125 0zm8.682007 4.5625l-7.03125 0q0.09375 1.3125 1.0 2.125q0.921875 0.8125 2.3125 0.8125q0.78125 0 1.4375 -0.28125q0.65625 -0.28125 1.140625 -0.828125l0.640625 0.734375q-0.5625 0.671875 -1.40625 1.03125q-0.84375 0.34375 -1.84375 0.34375q-1.296875 0 -2.296875 -0.546875q-1.0 -0.5625 -1.5625 -1.53125q-0.5625 -0.96875 -0.5625 -2.203125q0 -1.234375 0.53125 -2.203125q0.546875 -0.984375 1.484375 -1.53125q0.9375 -0.546875 2.09375 -0.546875q1.171875 0 2.09375 0.546875q0.9375 0.546875 1.453125 1.515625q0.53125 0.96875 0.53125 2.21875l-0.015625 0.34375zm-4.0625 -3.640625q-1.21875 0 -2.046875 0.78125q-0.8125 0.765625 -0.921875 2.015625l5.96875 0q-0.109375 -1.25 -0.9375 -2.015625q-0.828125 -0.78125 -2.0625 -0.78125zm7.4921417 0.734375q0.40625 -0.84375 1.1875 -1.28125q0.796875 -0.4375 1.96875 -0.4375l0 1.109375l-0.28125 -0.015625q-1.328125 0 -2.078125 0.8125q-0.75 0.8125 -0.75 2.296875l0 4.28125l-1.140625 0l0 -8.421875l1.09375 0l0 1.65625z" fill-rule="nonzero"/><path fill="#649d66" d="m129.14699 506.37796l177.95274 0l0 32.6929l-177.95274 0z" fill-rule="evenodd"/><path stroke="#d9d9d9" stroke-width="1.0" stroke-linejoin="round" stroke-linecap="butt" d="m129.14699 506.37796l177.95274 0l0 32.6929l-177.95274 0z" fill-rule="evenodd"/><path fill="#ffffff" d="m194.75241 517.3813l0 11.203125l-1.140625 0l0 -8.953125l-4.390625 7.53125l-0.5625 0l-4.40625 -7.484375l0 8.90625l-1.125 0l0 -11.203125l0.96875 0l4.859375 8.3125l4.828125 -8.3125l0.96875 0zm10.998779 2.78125l0 8.421875l-1.09375 0l0 -1.53125q-0.453125 0.765625 -1.234375 1.1875q-0.78125 0.421875 -1.78125 0.421875q-1.65625 0 -2.609375 -0.921875q-0.953125 -0.921875 -0.953125 -2.6875l0 -4.890625l1.140625 0l0 4.78125q0 1.328125 0.65625 2.015625q0.65625 0.6875 1.875 0.6875q1.328125 0 2.09375 -0.8125q0.765625 -0.8125 0.765625 -2.25l0 -4.421875l1.140625 0zm7.6117706 7.90625q-0.3125 0.296875 -0.796875 0.453125q-0.46875 0.140625 -0.984375 0.140625q-1.171875 0 -1.8125 -0.640625q-0.640625 -0.640625 -0.640625 -1.8125l0 -5.078125l-1.515625 0l0 -0.96875l1.515625 0l0 -1.828125l1.125 0l0 1.828125l2.5625 0l0 0.96875l-2.5625 0l0 5.015625q0 0.75 0.375 1.15625q0.375 0.390625 1.09375 0.390625q0.34375 0 0.671875 -0.109375q0.328125 -0.125 0.5625 -0.328125l0.40625 0.8125zm5.0116425 -7.96875q1.640625 0 2.515625 0.828125q0.890625 0.828125 0.890625 2.4375l0 5.21875l-1.09375 0l0 -1.3125q-0.375 0.65625 -1.125 1.03125q-0.75 0.359375 -1.765625 0.359375q-1.40625 0 -2.25 -0.671875q-0.828125 -0.671875 -0.828125 -1.78125q0 -1.0625 0.78125 -1.71875q0.78125 -0.65625 2.46875 -0.65625l2.671875 0l0 -0.515625q0 -1.09375 -0.609375 -1.65625q-0.609375 -0.5625 -1.765625 -0.5625q-0.8125 0 -1.546875 0.265625q-0.734375 0.265625 -1.265625 0.71875l-0.5 -0.84375q0.640625 -0.546875 1.53125 -0.84375q0.890625 -0.296875 1.890625 -0.296875zm-0.40625 7.671875q0.96875 0 1.65625 -0.4375q0.6875 -0.453125 1.015625 -1.28125l0 -1.375l-2.640625 0q-2.15625 0 -2.15625 1.5q0 0.75 0.5625 1.171875q0.5625 0.421875 1.5625 0.421875zm11.330643 0.296875q-0.3125 0.296875 -0.796875 0.453125q-0.46875 0.140625 -0.984375 0.140625q-1.171875 0 -1.8125 -0.640625q-0.640625 -0.640625 -0.640625 -1.8125l0 -5.078125l-1.515625 0l0 -0.96875l1.515625 0l0 -1.828125l1.125 0l0 1.828125l2.5625 0l0 0.96875l-2.5625 0l0 5.015625q0 0.75 0.375 1.15625q0.375 0.390625 1.09375 0.390625q0.34375 0 0.671875 -0.109375q0.328125 -0.125 0.5625 -0.328125l0.40625 0.8125zm2.0585175 -7.90625l1.140625 0l0 8.421875l-1.140625 0l0 -8.421875zm0.578125 -1.828125q-0.359375 0 -0.59375 -0.234375q-0.234375 -0.25 -0.234375 -0.59375q0 -0.3125 0.234375 -0.546875q0.234375 -0.25 0.59375 -0.25q0.34375 0 0.578125 0.234375q0.25 0.234375 0.25 0.546875q0 0.359375 -0.25 0.609375q-0.234375 0.234375 -0.578125 0.234375zm7.179016 10.328125q-1.21875 0 -2.203125 -0.546875q-0.96875 -0.5625 -1.53125 -1.53125q-0.5625 -0.96875 -0.5625 -2.203125q0 -1.234375 0.5625 -2.203125q0.5625 -0.984375 1.53125 -1.53125q0.984375 -0.546875 2.203125 -0.546875q1.203125 0 2.171875 0.546875q0.984375 0.546875 1.53125 1.53125q0.5625 0.96875 0.5625 2.203125q0 1.234375 -0.5625 2.203125q-0.546875 0.96875 -1.53125 1.53125q-0.96875 0.546875 -2.171875 0.546875zm0 -1.0q0.890625 0 1.59375 -0.40625q0.71875 -0.421875 1.109375 -1.171875q0.40625 -0.75 0.40625 -1.703125q0 -0.96875 -0.40625 -1.71875q-0.390625 -0.75 -1.109375 -1.15625q-0.703125 -0.40625 -1.59375 -0.40625q-0.90625 0 -1.625 0.40625q-0.703125 0.40625 -1.109375 1.15625q-0.40625 0.75 -0.40625 1.71875q0 0.953125 0.40625 1.703125q0.40625 0.75 1.109375 1.171875q0.71875 0.40625 1.625 0.40625zm10.875763 -7.5625q1.578125 0 2.515625 0.921875q0.9375 0.921875 0.9375 2.6875l0 4.875l-1.140625 0l0 -4.765625q0 -1.3125 -0.65625 -2.0q-0.65625 -0.6875 -1.875 -0.6875q-1.359375 0 -2.15625 0.8125q-0.78125 0.796875 -0.78125 2.21875l0 4.421875l-1.140625 0l0 -8.421875l1.09375 0l0 1.5625q0.46875 -0.765625 1.28125 -1.1875q0.828125 -0.4375 1.921875 -0.4375z" fill-rule="nonzero"/><path fill="#649d66" d="m98.438324 276.84253l119.68503 -58.488205l119.68506 58.488205l-119.68506 58.48819z" fill-rule="evenodd"/><path stroke="#d9d9d9" stroke-width="1.0" stroke-linejoin="round" stroke-linecap="butt" d="m98.438324 276.84253l119.68503 -58.488205l119.68506 58.488205l-119.68506 58.48819z" fill-rule="evenodd"/><path fill="#ffffff" d="m204.57356 273.29626q-1.25 0 -2.390625 -0.390625q-1.140625 -0.40625 -1.765625 -1.0625l0.46875 -0.90625q0.609375 0.609375 1.609375 0.984375q1.015625 0.375 2.078125 0.375q1.515625 0 2.265625 -0.546875q0.75 -0.5625 0.75 -1.4375q0 -0.671875 -0.40625 -1.078125q-0.40625 -0.40625 -1.0 -0.609375q-0.59375 -0.21875 -1.65625 -0.484375q-1.265625 -0.3125 -2.015625 -0.609375q-0.75 -0.296875 -1.28125 -0.90625q-0.53125 -0.609375 -0.53125 -1.640625q0 -0.859375 0.4375 -1.546875q0.453125 -0.703125 1.375 -1.109375q0.9375 -0.421875 2.3125 -0.421875q0.953125 0 1.875 0.265625q0.921875 0.265625 1.59375 0.734375l-0.40625 0.9375q-0.703125 -0.46875 -1.5 -0.6875q-0.796875 -0.234375 -1.5625 -0.234375q-1.46875 0 -2.21875 0.5625q-0.75 0.5625 -0.75 1.46875q0 0.671875 0.40625 1.078125q0.421875 0.40625 1.03125 0.625q0.609375 0.203125 1.65625 0.46875q1.234375 0.296875 1.984375 0.59375q0.765625 0.296875 1.296875 0.90625q0.53125 0.59375 0.53125 1.625q0 0.84375 -0.46875 1.546875q-0.453125 0.6875 -1.40625 1.09375q-0.9375 0.40625 -2.3125 0.40625zm10.949402 -0.609375q-0.3125 0.296875 -0.796875 0.453125q-0.46875 0.140625 -0.984375 0.140625q-1.171875 0 -1.8125 -0.640625q-0.640625 -0.640625 -0.640625 -1.8125l0 -5.078125l-1.515625 0l0 -0.96875l1.515625 0l0 -1.828125l1.125 0l0 1.828125l2.5625 0l0 0.96875l-2.5625 0l0 5.015625q0 0.75 0.375 1.15625q0.375 0.390625 1.09375 0.390625q0.34375 0 0.671875 -0.109375q0.328125 -0.125 0.5625 -0.328125l0.40625 0.8125zm5.2076416 0.59375q-1.21875 0 -2.203125 -0.546875q-0.96875 -0.5625 -1.53125 -1.53125q-0.5625 -0.96875 -0.5625 -2.203125q0 -1.234375 0.5625 -2.203125q0.5625 -0.984375 1.53125 -1.53125q0.984375 -0.546875 2.203125 -0.546875q1.203125 0 2.171875 0.546875q0.984375 0.546875 1.53125 1.53125q0.5625 0.96875 0.5625 2.203125q0 1.234375 -0.5625 2.203125q-0.546875 0.96875 -1.53125 1.53125q-0.96875 0.546875 -2.171875 0.546875zm0 -1.0q0.890625 0 1.59375 -0.40625q0.71875 -0.421875 1.109375 -1.171875q0.40625 -0.75 0.40625 -1.703125q0 -0.96875 -0.40625 -1.71875q-0.390625 -0.75 -1.109375 -1.15625q-0.703125 -0.40625 -1.59375 -0.40625q-0.90625 0 -1.625 0.40625q-0.703125 0.40625 -1.109375 1.15625q-0.40625 0.75 -0.40625 1.71875q0 0.953125 0.40625 1.703125q0.40625 0.75 1.109375 1.171875q0.71875 0.40625 1.625 0.40625zm10.922638 -7.5625q1.1875 0 2.140625 0.546875q0.96875 0.53125 1.5 1.515625q0.546875 0.96875 0.546875 2.21875q0 1.265625 -0.546875 2.25q-0.53125 0.96875 -1.484375 1.5q-0.953125 0.53125 -2.15625 0.53125q-1.03125 0 -1.859375 -0.421875q-0.8125 -0.421875 -1.34375 -1.234375l0 4.6875l-1.140625 0l0 -11.53125l1.09375 0l0 1.671875q0.515625 -0.828125 1.34375 -1.28125q0.84375 -0.453125 1.90625 -0.453125zm-0.078125 7.5625q0.875 0 1.59375 -0.40625q0.71875 -0.421875 1.125 -1.171875q0.40625 -0.75 0.40625 -1.703125q0 -0.96875 -0.40625 -1.703125q-0.40625 -0.75 -1.125 -1.15625q-0.71875 -0.421875 -1.59375 -0.421875q-0.90625 0 -1.625 0.421875q-0.703125 0.40625 -1.109375 1.15625q-0.40625 0.734375 -0.40625 1.703125q0 0.953125 0.40625 1.703125q0.40625 0.75 1.109375 1.171875q0.71875 0.40625 1.625 0.40625z" fill-rule="nonzero"/><path fill="#ffffff" d="m181.23477 292.29626q-1.65625 0 -3.0 -0.734375q-1.328125 -0.734375 -2.09375 -2.03125q-0.765625 -1.3125 -0.765625 -2.921875q0 -1.625 0.765625 -2.921875q0.765625 -1.3125 2.109375 -2.046875q1.34375 -0.734375 3.0 -0.734375q1.25 0 2.296875 0.421875q1.0625 0.40625 1.796875 1.21875l-0.75 0.75q-1.3125 -1.328125 -3.3125 -1.328125q-1.328125 0 -2.421875 0.609375q-1.078125 0.59375 -1.703125 1.65625q-0.609375 1.0625 -0.609375 2.375q0 1.3125 0.609375 2.375q0.625 1.046875 1.703125 1.65625q1.09375 0.609375 2.421875 0.609375q2.015625 0 3.3125 -1.34375l0.75 0.75q-0.734375 0.796875 -1.796875 1.21875q-1.0625 0.421875 -2.3125 0.421875zm9.479782 -0.015625q-1.21875 0 -2.203125 -0.546875q-0.96875 -0.5625 -1.53125 -1.53125q-0.5625 -0.96875 -0.5625 -2.203125q0 -1.234375 0.5625 -2.203125q0.5625 -0.984375 1.53125 -1.53125q0.984375 -0.546875 2.203125 -0.546875q1.203125 0 2.171875 0.546875q0.984375 0.546875 1.53125 1.53125q0.5625 0.96875 0.5625 2.203125q0 1.234375 -0.5625 2.203125q-0.546875 0.96875 -1.53125 1.53125q-0.96875 0.546875 -2.171875 0.546875zm0 -1.0q0.890625 0 1.59375 -0.40625q0.71875 -0.421875 1.109375 -1.171875q0.40625 -0.75 0.40625 -1.703125q0 -0.96875 -0.40625 -1.71875q-0.390625 -0.75 -1.109375 -1.15625q-0.703125 -0.40625 -1.59375 -0.40625q-0.90625 0 -1.625 0.40625q-0.703125 0.40625 -1.109375 1.15625q-0.40625 0.75 -0.40625 1.71875q0 0.953125 0.40625 1.703125q0.40625 0.75 1.109375 1.171875q0.71875 0.40625 1.625 0.40625zm10.875763 -7.5625q1.578125 0 2.515625 0.921875q0.9375 0.921875 0.9375 2.6875l0 4.875l-1.140625 0l0 -4.765625q0 -1.3125 -0.65625 -2.0q-0.65625 -0.6875 -1.875 -0.6875q-1.359375 0 -2.15625 0.8125q-0.78125 0.796875 -0.78125 2.21875l0 4.421875l-1.140625 0l0 -8.421875l1.09375 0l0 1.5625q0.46875 -0.765625 1.28125 -1.1875q0.828125 -0.4375 1.921875 -0.4375zm14.254639 -3.390625l0 11.875l-1.09375 0l0 -1.65625q-0.515625 0.84375 -1.359375 1.296875q-0.828125 0.4375 -1.890625 0.4375q-1.171875 0 -2.140625 -0.546875q-0.953125 -0.546875 -1.5 -1.515625q-0.546875 -0.96875 -0.546875 -2.21875q0 -1.25 0.546875 -2.21875q0.546875 -0.984375 1.5 -1.515625q0.96875 -0.546875 2.140625 -0.546875q1.03125 0 1.84375 0.4375q0.828125 0.421875 1.359375 1.234375l0 -5.0625l1.140625 0zm-4.234375 10.953125q0.875 0 1.578125 -0.40625q0.71875 -0.421875 1.125 -1.171875q0.40625 -0.75 0.40625 -1.703125q0 -0.96875 -0.40625 -1.71875q-0.40625 -0.75 -1.125 -1.15625q-0.703125 -0.40625 -1.578125 -0.40625q-0.90625 0 -1.625 0.40625q-0.703125 0.40625 -1.109375 1.15625q-0.40625 0.75 -0.40625 1.71875q0 0.953125 0.40625 1.703125q0.40625 0.75 1.109375 1.171875q0.71875 0.40625 1.625 0.40625zm7.3948975 -7.5l1.140625 0l0 8.421875l-1.140625 0l0 -8.421875zm0.578125 -1.828125q-0.359375 0 -0.59375 -0.234375q-0.234375 -0.25 -0.234375 -0.59375q0 -0.3125 0.234375 -0.546875q0.234375 -0.25 0.59375 -0.25q0.34375 0 0.578125 0.234375q0.25 0.234375 0.25 0.546875q0 0.359375 -0.25 0.609375q-0.234375 0.234375 -0.578125 0.234375zm8.163391 9.734375q-0.3125 0.296875 -0.796875 0.453125q-0.46875 0.140625 -0.984375 0.140625q-1.171875 0 -1.8125 -0.640625q-0.640625 -0.640625 -0.640625 -1.8125l0 -5.078125l-1.515625 0l0 -0.96875l1.515625 0l0 -1.828125l1.125 0l0 1.828125l2.5625 0l0 0.96875l-2.5625 0l0 5.015625q0 0.75 0.375 1.15625q0.375 0.390625 1.09375 0.390625q0.34375 0 0.671875 -0.109375q0.328125 -0.125 0.5625 -0.328125l0.40625 0.8125zm2.0585175 -7.90625l1.140625 0l0 8.421875l-1.140625 0l0 -8.421875zm0.578125 -1.828125q-0.359375 0 -0.59375 -0.234375q-0.234375 -0.25 -0.234375 -0.59375q0 -0.3125 0.234375 -0.546875q0.234375 -0.25 0.59375 -0.25q0.34375 0 0.578125 0.234375q0.25 0.234375 0.25 0.546875q0 0.359375 -0.25 0.609375q-0.234375 0.234375 -0.578125 0.234375zm7.179016 10.328125q-1.21875 0 -2.203125 -0.546875q-0.96875 -0.5625 -1.53125 -1.53125q-0.5625 -0.96875 -0.5625 -2.203125q0 -1.234375 0.5625 -2.203125q0.5625 -0.984375 1.53125 -1.53125q0.984375 -0.546875 2.203125 -0.546875q1.203125 0 2.171875 0.546875q0.984375 0.546875 1.53125 1.53125q0.5625 0.96875 0.5625 2.203125q0 1.234375 -0.5625 2.203125q-0.546875 0.96875 -1.53125 1.53125q-0.96875 0.546875 -2.171875 0.546875zm0 -1.0q0.890625 0 1.59375 -0.40625q0.71875 -0.421875 1.109375 -1.171875q0.40625 -0.75 0.40625 -1.703125q0 -0.96875 -0.40625 -1.71875q-0.390625 -0.75 -1.109375 -1.15625q-0.703125 -0.40625 -1.59375 -0.40625q-0.90625 0 -1.625 0.40625q-0.703125 0.40625 -1.109375 1.15625q-0.40625 0.75 -0.40625 1.71875q0 0.953125 0.40625 1.703125q0.40625 0.75 1.109375 1.171875q0.71875 0.40625 1.625 0.40625zm10.875763 -7.5625q1.578125 0 2.515625 0.921875q0.9375 0.921875 0.9375 2.6875l0 4.875l-1.140625 0l0 -4.765625q0 -1.3125 -0.65625 -2.0q-0.65625 -0.6875 -1.875 -0.6875q-1.359375 0 -2.15625 0.8125q-0.78125 0.796875 -0.78125 2.21875l0 4.421875l-1.140625 0l0 -8.421875l1.09375 0l0 1.5625q0.46875 -0.765625 1.28125 -1.1875q0.828125 -0.4375 1.921875 -0.4375zm7.954651 5.125q0 -0.65625 0.203125 -1.15625q0.21875 -0.5 0.53125 -0.84375q0.328125 -0.359375 0.84375 -0.796875q0.6875 -0.609375 1.015625 -1.0625q0.328125 -0.46875 0.328125 -1.125q0 -0.875 -0.6875 -1.40625q-0.6875 -0.53125 -1.890625 -0.53125q-1.9843903 0 -3.0468903 1.296875l-0.859375 -0.640625q1.359375 -1.671875 3.9843903 -1.671875q1.6875 0 2.6875 0.75q1.0 0.75 1.0 2.03125q0 0.65625 -0.21875 1.171875q-0.21875 0.5 -0.53125 0.859375q-0.3125 0.34375 -0.828125 0.796875q-0.6875 0.625 -1.03125 1.125q-0.328125 0.484375 -0.328125 1.203125l-1.171875 0zm0.59375 3.4375q-0.359375 0 -0.609375 -0.25q-0.234375 -0.25 -0.234375 -0.578125q0 -0.359375 0.234375 -0.578125q0.25 -0.234375 0.609375 -0.234375q0.359375 0 0.59375 0.234375q0.25 0.21875 0.25 0.578125q0 0.328125 -0.25 0.578125q-0.25 0.25 -0.59375 0.25z" fill-rule="nonzero"/><path fill="#000000" fill-opacity="0.0" d="m4.6377954 276.84253l0 0c0 -9.897644 8.023622 -17.921265 17.92126 -17.921265l0 0c4.7530136 0 9.311356 1.8881226 12.672245 5.2490234c3.3608856 3.3608704 5.249016 7.91922 5.249016 12.672241l0 0c0 9.897644 -8.023624 17.921265 -17.92126 17.921265l0 0c-9.897638 0 -17.92126 -8.023621 -17.92126 -17.921265z" fill-rule="evenodd"/><path stroke="#649d66" stroke-width="1.0" stroke-linejoin="round" stroke-linecap="butt" d="m4.6377954 276.84253l0 0c0 -9.897644 8.023622 -17.921265 17.92126 -17.921265l0 0c4.7530136 0 9.311356 1.8881226 12.672245 5.2490234c3.3608856 3.3608704 5.249016 7.91922 5.249016 12.672241l0 0c0 9.897644 -8.023624 17.921265 -17.92126 17.921265l0 0c-9.897638 0 -17.92126 -8.023621 -17.92126 -17.921265z" fill-rule="evenodd"/><path fill="#649d66" d="m7.015748 276.84253l0 0c0 -8.584351 6.958976 -15.543304 15.543307 -15.543304l0 0c4.122341 0 8.075842 1.6375732 10.990776 4.5525208c2.914936 2.914917 4.552532 6.8684387 4.552532 10.990784l0 0c0 8.58432 -6.9589767 15.543304 -15.543308 15.543304l0 0c-8.5843315 0 -15.543307 -6.9589844 -15.543307 -15.543304z" fill-rule="evenodd"/><path fill="#000000" fill-opacity="0.0" d="m218.12335 42.283466l0 40.251965" fill-rule="evenodd"/><path stroke="#434343" stroke-width="1.0" stroke-linejoin="round" stroke-linecap="butt" d="m218.12335 42.283466l0 34.251965" fill-rule="evenodd"/><path fill="#434343" stroke="#434343" stroke-width="1.0" stroke-linecap="butt" d="m216.47163 76.53543l1.6517181 4.538101l1.6517334 -4.538101z" fill-rule="evenodd"/><path fill="#000000" fill-opacity="0.0" d="m218.12335 115.220474l0 35.2126" fill-rule="evenodd"/><path stroke="#434343" stroke-width="1.0" stroke-linejoin="round" stroke-linecap="butt" d="m218.12335 115.220474l0 29.2126" fill-rule="evenodd"/><path fill="#434343" stroke="#434343" stroke-width="1.0" stroke-linecap="butt" d="m216.47163 144.43307l1.6517181 4.538101l1.6517334 -4.538101z" fill-rule="evenodd"/><path fill="#000000" fill-opacity="0.0" d="m218.12335 183.13387l0 35.212585" fill-rule="evenodd"/><path stroke="#434343" stroke-width="1.0" stroke-linejoin="round" stroke-linecap="butt" d="m218.12335 183.13387l0 29.212585" fill-rule="evenodd"/><path fill="#434343" stroke="#434343" stroke-width="1.0" stroke-linecap="butt" d="m216.47163 212.34645l1.6517181 4.538101l1.6517334 -4.538101z" fill-rule="evenodd"/><path fill="#000000" fill-opacity="0.0" d="m218.12335 335.33072l0 35.212585" fill-rule="evenodd"/><path stroke="#434343" stroke-width="1.0" stroke-linejoin="round" stroke-linecap="butt" d="m218.12335 335.33072l0 29.212585" fill-rule="evenodd"/><path fill="#434343" stroke="#434343" stroke-width="1.0" stroke-linecap="butt" d="m216.47163 364.5433l1.6517181 4.538086l1.6517334 -4.538086z" fill-rule="evenodd"/><path fill="#000000" fill-opacity="0.0" d="m218.12335 403.24408l0 35.212616" fill-rule="evenodd"/><path stroke="#434343" stroke-width="1.0" stroke-linejoin="round" stroke-linecap="butt" d="m218.12335 403.24408l0 29.212616" fill-rule="evenodd"/><path fill="#434343" stroke="#434343" stroke-width="1.0" stroke-linecap="butt" d="m216.47163 432.4567l1.6517181 4.538086l1.6517334 -4.538086z" fill-rule="evenodd"/><path fill="#000000" fill-opacity="0.0" d="m218.12335 471.15747l0 35.212616" fill-rule="evenodd"/><path stroke="#434343" stroke-width="1.0" stroke-linejoin="round" stroke-linecap="butt" d="m218.12335 471.15747l0 29.212616" fill-rule="evenodd"/><path fill="#434343" stroke="#434343" stroke-width="1.0" stroke-linecap="butt" d="m216.47163 500.3701l1.6517181 4.538086l1.6517334 -4.538086z" fill-rule="evenodd"/><path fill="#000000" fill-opacity="0.0" d="m218.12335 539.07086l0 24.998352l150.07913 0l0 -465.18732l-61.102753 0" fill-rule="evenodd"/><path stroke="#434343" stroke-width="1.0" stroke-linejoin="round" stroke-linecap="butt" d="m218.12335 539.07086l0 24.998352l150.0791 0l0 -465.18732l-57.67563 0" fill-rule="evenodd"/><path fill="#434343" stroke="#434343" stroke-width="1.0" stroke-linecap="butt" d="m310.52682 98.88189l1.1245728 -1.1245804l-3.0897522 1.1245804l3.0897522 1.1245804z" fill-rule="evenodd"/><path fill="#000000" fill-opacity="0.0" d="m98.438324 276.84253l-57.95276 0" fill-rule="evenodd"/><path stroke="#434343" stroke-width="1.0" stroke-linejoin="round" stroke-linecap="butt" d="m98.438324 276.84253l-51.95276 0" fill-rule="evenodd"/><path fill="#434343" stroke="#434343" stroke-width="1.0" stroke-linecap="butt" d="m46.485565 275.1908l-4.5380974 1.6517334l4.5380974 1.6517334z" fill-rule="evenodd"/><path fill="#000000" fill-opacity="0.0" d="m73.64042 242.73228l79.1811 0l0 40.25197l-79.1811 0z" fill-rule="evenodd"/><path fill="#000000" d="m91.29667 258.6704l-4.203125 9.4375q-0.515625 1.171875 -1.1875 1.671875q-0.671875 0.5 -1.625 0.5q-0.59375 0 -1.125 -0.203125q-0.53125 -0.1875 -0.921875 -0.5625l0.53125 -0.859375q0.640625 0.640625 1.53125 0.640625q0.578125 0 0.984375 -0.328125q0.421875 -0.3125 0.765625 -1.078125l0.375 -0.8125l-3.765625 -8.40625l1.1875 0l3.171875 7.15625l3.15625 -7.15625l1.125 0z" fill-rule="nonzero"/><path fill="#000000" fill-opacity="0.0" d="m190.3727 324.62598l79.18111 0l0 40.251984l-79.18111 0z" fill-rule="evenodd"/><path fill="#000000" d="m205.2477 340.50162q1.578125 0 2.515625 0.921875q0.9375 0.921875 0.9375 2.6875l0 4.875l-1.140625 0l0 -4.765625q0 -1.3125 -0.65625 -2.0q-0.65625 -0.6875 -1.875 -0.6875q-1.359375 0 -2.15625 0.8125q-0.78125 0.796875 -0.78125 2.21875l0 4.421875l-1.140625 0l0 -8.421875l1.09375 0l0 1.5625q0.46875 -0.765625 1.28125 -1.1875q0.828125 -0.4375 1.921875 -0.4375z" fill-rule="nonzero"/></g></svg>