<svg version="1.1" viewBox="0.0 0.0 256.62729658792654 156.20734908136484" fill="none" stroke="none" stroke-linecap="square" stroke-miterlimit="10" xmlns:xlink="http://www.w3.org/1999/xlink" xmlns="http://www.w3.org/2000/svg"><clipPath id="p.0"><path d="m0 0l256.6273 0l0 156.20735l-256.6273 0l0 -156.20735z" clip-rule="nonzero"/></clipPath><g clip-path="url(#p.0)"><path fill="#000000" fill-opacity="0.0" d="m0 0l256.6273 0l0 156.20735l-256.6273 0z" fill-rule="evenodd"/><path fill="#ffffff" d="m-1.0918635 -2.6194227l260.97638 0l0 166.29921l-260.97638 0z" fill-rule="evenodd"/><path fill="#649d66" d="m47.73622 4.2545934l39.622047 0l0 39.622047l-39.622047 0z" fill-rule="evenodd"/><path stroke="#000000" stroke-width="1.0" stroke-linejoin="round" stroke-linecap="butt" d="m47.73622 4.2545934l39.622047 0l0 39.622047l-39.622047 0z" fill-rule="evenodd"/><path fill="#ffffff" d="m70.17444 24.37624l0 -1.421875l1.828125 0q0.265625 0 0.390625 0.109375q0.125 0.109375 0.125 0.28125q0 0.171875 -0.125 0.28125q-0.125 0.109375 -0.390625 0.109375l-1.0625 0l0 7.78125q0 0.78125 -0.328125 1.40625q-0.21875 0.40625 -0.75 0.828125q-0.515625 0.4375 -0.9375 0.625q-0.421875 0.1875 -1.140625 0.1875l-2.203125 0q-0.28125 0 -0.40625 -0.109375q-0.125 -0.09375 -0.125 -0.28125q0 -0.171875 0.125 -0.28125q0.125 -0.109375 0.40625 -0.109375l2.234375 0q0.6875 0 1.234375 -0.359375q0.546875 -0.34375 0.921875 -1.015625q0.203125 -0.390625 0.203125 -1.0l0 -2.328125q-1.265625 1.71875 -3.234375 1.71875q-1.609375 0 -2.78125 -1.1875q-1.1562462 -1.203125 -1.1562462 -2.890625q0 -1.671875 1.1562462 -2.859375q1.171875 -1.1875 2.78125 -1.1875q1.96875 0 3.234375 1.703125zm0 2.34375q0 -1.359375 -0.953125 -2.3125q-0.9375 -0.953125 -2.25 -0.953125q-1.296875 0 -2.234375 0.953125q-0.9374962 0.953125 -0.9374962 2.3125q0 1.375 0.9374962 2.328125q0.9375 0.953125 2.234375 0.953125q1.3125 0 2.25 -0.953125q0.953125 -0.953125 0.953125 -2.328125z" fill-rule="nonzero"/><path fill="#649d66" d="m87.35827 4.2545934l39.622047 0l0 39.622047l-39.622047 0z" fill-rule="evenodd"/><path stroke="#000000" stroke-width="1.0" stroke-linejoin="round" stroke-linecap="butt" d="m87.35827 4.2545934l39.622047 0l0 39.622047l-39.622047 0z" fill-rule="evenodd"/><path fill="#ffffff" d="m111.390236 27.15749l-7.953125 0q0.21875 1.515625 1.28125 2.4375q1.0625 0.921875 2.625 0.921875q0.875 0 1.828125 -0.28125q0.953125 -0.296875 1.5625 -0.765625q0.171875 -0.140625 0.296875 -0.140625q0.15625 0 0.265625 0.125q0.109375 0.109375 0.109375 0.265625q0 0.15625 -0.15625 0.296875q-0.4375 0.46875 -1.578125 0.875q-1.140625 0.40625 -2.328125 0.40625q-2.0 0 -3.34375 -1.3125q-1.34375 -1.3125 -1.34375 -3.1875q0 -1.6875 1.25 -2.90625q1.265625 -1.21875 3.125 -1.21875q1.90625 0 3.140625 1.25q1.234375 1.25 1.21875 3.234375zm-0.796875 -0.796875q-0.234375 -1.28125 -1.21875 -2.09375q-0.984375 -0.8125 -2.34375 -0.8125q-1.375 0 -2.359375 0.8125q-0.96875 0.796875 -1.21875 2.09375l7.140625 0z" fill-rule="nonzero"/><path fill="#649d66" d="m126.980316 4.2545934l39.62204 0l0 39.622047l-39.62204 0z" fill-rule="evenodd"/><path stroke="#000000" stroke-width="1.0" stroke-linejoin="round" stroke-linecap="butt" d="m126.980316 4.2545934l39.62204 0l0 39.622047l-39.62204 0z" fill-rule="evenodd"/><path fill="#ffffff" d="m151.01228 27.15749l-7.953125 0q0.21875 1.515625 1.28125 2.4375q1.0625 0.921875 2.625 0.921875q0.875 0 1.828125 -0.28125q0.953125 -0.296875 1.5625 -0.765625q0.171875 -0.140625 0.296875 -0.140625q0.15625 0 0.265625 0.125q0.109375 0.109375 0.109375 0.265625q0 0.15625 -0.15625 0.296875q-0.4375 0.46875 -1.578125 0.875q-1.140625 0.40625 -2.328125 0.40625q-2.0 0 -3.34375 -1.3125q-1.34375 -1.3125 -1.34375 -3.1875q0 -1.6875 1.25 -2.90625q1.265625 -1.21875 3.125 -1.21875q1.90625 0 3.140625 1.25q1.234375 1.25 1.21875 3.234375zm-0.796875 -0.796875q-0.234375 -1.28125 -1.21875 -2.09375q-0.984375 -0.8125 -2.34375 -0.8125q-1.375 0 -2.359375 0.8125q-0.96875 0.796875 -1.21875 2.09375l7.140625 0z" fill-rule="nonzero"/><path fill="#649d66" d="m166.60236 4.2545934l39.622055 0l0 39.622047l-39.622055 0z" fill-rule="evenodd"/><path stroke="#000000" stroke-width="1.0" stroke-linejoin="round" stroke-linecap="butt" d="m166.60236 4.2545934l39.622055 0l0 39.622047l-39.622055 0z" fill-rule="evenodd"/><path fill="#ffffff" d="m186.80621 18.954365l0 2.015625l-1.15625 0l0 -2.015625l1.15625 0zm0.015625 4.0l0 7.25l3.0625 0q0.296875 0 0.40625 0.109375q0.125 0.109375 0.125 0.28125q0 0.171875 -0.125 0.28125q-0.109375 0.109375 -0.40625 0.109375l-6.90625 0q-0.265625 0 -0.390625 -0.109375q-0.125 -0.109375 -0.125 -0.28125q0 -0.171875 0.125 -0.28125q0.125 -0.109375 0.390625 -0.109375l3.0625 0l0 -6.46875l-2.265625 0q-0.28125 0 -0.40625 -0.109375q-0.125 -0.109375 -0.125 -0.28125q0 -0.171875 0.125 -0.28125q0.125 -0.109375 0.40625 -0.109375l3.046875 0z" fill-rule="nonzero"/><path fill="#649d66" d="m206.22441 4.2545934l39.62204 0l0 39.622047l-39.62204 0z" fill-rule="evenodd"/><path stroke="#000000" stroke-width="1.0" stroke-linejoin="round" stroke-linecap="butt" d="m206.22441 4.2545934l39.62204 0l0 39.622047l-39.62204 0z" fill-rule="evenodd"/><path fill="#ffffff" d="m230.25638 27.15749l-7.953125 0q0.21875 1.515625 1.28125 2.4375q1.0625 0.921875 2.625 0.921875q0.875 0 1.828125 -0.28125q0.953125 -0.296875 1.5625 -0.765625q0.171875 -0.140625 0.296875 -0.140625q0.15625 0 0.265625 0.125q0.109375 0.109375 0.109375 0.265625q0 0.15625 -0.15625 0.296875q-0.4375 0.46875 -1.578125 0.875q-1.140625 0.40625 -2.328125 0.40625q-2.0 0 -3.34375 -1.3125q-1.34375 -1.3125 -1.34375 -3.1875q0 -1.6875 1.25 -2.90625q1.265625 -1.21875 3.125 -1.21875q1.90625 0 3.140625 1.25q1.234375 1.25 1.21875 3.234375zm-0.796875 -0.796875q-0.234375 -1.28125 -1.21875 -2.09375q-0.984375 -0.8125 -2.34375 -0.8125q-1.375 0 -2.359375 0.8125q-0.96875 0.796875 -1.21875 2.09375l7.140625 0z" fill-rule="nonzero"/><path fill="#649d66" d="m47.73622 57.38845l39.622047 0l0 39.622047l-39.622047 0z" fill-rule="evenodd"/><path stroke="#000000" stroke-width="1.0" stroke-linejoin="round" stroke-linecap="butt" d="m47.73622 57.38845l39.622047 0l0 39.622047l-39.622047 0z" fill-rule="evenodd"/><path fill="#ffffff" d="m69.78381 84.11948l0 -1.125q-1.6875 1.4375 -3.625 1.4375q-1.40625 0 -2.1874962 -0.703125q-0.78125 -0.71875 -0.78125 -1.75q0 -1.140625 1.0312462 -1.984375q1.046875 -0.84375 3.03125 -0.84375q0.546875 0 1.171875 0.078125q0.625 0.0625 1.359375 0.21875l0 -1.265625q0 -0.640625 -0.59375 -1.109375q-0.59375 -0.484375 -1.78125 -0.484375q-0.90625 0 -2.546875 0.53125q-0.296875 0.09375 -0.375 0.09375q-0.15625 0 -0.265625 -0.109375q-0.109375 -0.109375 -0.109375 -0.28125q0 -0.15625 0.09375 -0.25q0.140625 -0.140625 1.0625 -0.375q1.4375 -0.390625 2.1875 -0.390625q1.46875 0 2.296875 0.734375q0.828125 0.71875 0.828125 1.640625l0 5.15625l1.03125 0q0.296875 0 0.40625 0.109375q0.125 0.109375 0.125 0.28125q0 0.171875 -0.125 0.28125q-0.109375 0.109375 -0.40625 0.109375l-1.828125 0zm0 -3.875q-0.546875 -0.15625 -1.15625 -0.234375q-0.609375 -0.078125 -1.28125 -0.078125q-1.703125 0 -2.65625 0.734375q-0.7343712 0.546875 -0.7343712 1.3125q0 0.703125 0.5468712 1.1875q0.5625 0.484375 1.625 0.484375q1.0 0 1.859375 -0.40625q0.875 -0.40625 1.796875 -1.28125l0 -1.71875z" fill-rule="nonzero"/><path fill="#649d66" d="m87.35827 57.38845l39.622047 0l0 39.622047l-39.622047 0z" fill-rule="evenodd"/><path stroke="#000000" stroke-width="1.0" stroke-linejoin="round" stroke-linecap="butt" d="m87.35827 57.38845l39.622047 0l0 39.622047l-39.622047 0z" fill-rule="evenodd"/><path fill="#ffffff" d="m104.233986 76.08823l0 1.421875q0.6875 -0.84375 1.484375 -1.265625q0.8125 -0.4375 1.890625 -0.4375q1.15625 0 2.125 0.546875q0.96875 0.53125 1.5 1.5q0.546875 0.953125 0.546875 2.0q0 1.6875 -1.203125 2.890625q-1.203125 1.1875 -2.953125 1.1875q-2.09375 0 -3.390625 -1.703125l0 4.6875l1.890625 0q0.28125 0 0.390625 0.109375q0.125 0.109375 0.125 0.28125q0 0.171875 -0.125 0.28125q-0.109375 0.109375 -0.390625 0.109375l-3.71875 0q-0.28125 0 -0.40625 -0.109375q-0.109375 -0.09375 -0.109375 -0.28125q0 -0.171875 0.109375 -0.28125q0.125 -0.109375 0.40625 -0.109375l1.046875 0l0 -10.046875l-1.046875 0q-0.28125 0 -0.40625 -0.109375q-0.109375 -0.109375 -0.109375 -0.28125q0 -0.171875 0.109375 -0.28125q0.125 -0.109375 0.40625 -0.109375l1.828125 0zm6.75 3.765625q0 -1.34375 -0.984375 -2.296875q-0.96875 -0.96875 -2.375 -0.96875q-1.421875 0 -2.40625 0.96875q-0.984375 0.96875 -0.984375 2.296875q0 1.359375 0.984375 2.328125q0.984375 0.953125 2.40625 0.953125q1.390625 0 2.375 -0.953125q0.984375 -0.96875 0.984375 -2.328125z" fill-rule="nonzero"/><path fill="#649d66" d="m126.980316 57.38845l39.62204 0l0 39.622047l-39.62204 0z" fill-rule="evenodd"/><path stroke="#000000" stroke-width="1.0" stroke-linejoin="round" stroke-linecap="butt" d="m126.980316 57.38845l39.62204 0l0 39.622047l-39.62204 0z" fill-rule="evenodd"/><path fill="#ffffff" d="m143.85603 76.08823l0 1.421875q0.6875 -0.84375 1.484375 -1.265625q0.8125 -0.4375 1.890625 -0.4375q1.15625 0 2.125 0.546875q0.96875 0.53125 1.5 1.5q0.546875 0.953125 0.546875 2.0q0 1.6875 -1.203125 2.890625q-1.203125 1.1875 -2.953125 1.1875q-2.09375 0 -3.390625 -1.703125l0 4.6875l1.890625 0q0.28125 0 0.390625 0.109375q0.125 0.109375 0.125 0.28125q0 0.171875 -0.125 0.28125q-0.109375 0.109375 -0.390625 0.109375l-3.71875 0q-0.28125 0 -0.40625 -0.109375q-0.109375 -0.09375 -0.109375 -0.28125q0 -0.171875 0.109375 -0.28125q0.125 -0.109375 0.40625 -0.109375l1.046875 0l0 -10.046875l-1.046875 0q-0.28125 0 -0.40625 -0.109375q-0.109375 -0.109375 -0.109375 -0.28125q0 -0.171875 0.109375 -0.28125q0.125 -0.109375 0.40625 -0.109375l1.828125 0zm6.75 3.765625q0 -1.34375 -0.984375 -2.296875q-0.96875 -0.96875 -2.375 -0.96875q-1.421875 0 -2.40625 0.96875q-0.984375 0.96875 -0.984375 2.296875q0 1.359375 0.984375 2.328125q0.984375 0.953125 2.40625 0.953125q1.390625 0 2.375 -0.953125q0.984375 -0.96875 0.984375 -2.328125z" fill-rule="nonzero"/><path fill="#649d66" d="m166.60236 57.38845l39.622055 0l0 39.622047l-39.622055 0z" fill-rule="evenodd"/><path stroke="#000000" stroke-width="1.0" stroke-linejoin="round" stroke-linecap="butt" d="m166.60236 57.38845l39.622055 0l0 39.622047l-39.622055 0z" fill-rule="evenodd"/><path fill="#ffffff" d="m189.04059 77.5101l0 -1.421875l1.828125 0q0.265625 0 0.390625 0.109375q0.125 0.109375 0.125 0.28125q0 0.171875 -0.125 0.28125q-0.125 0.109375 -0.390625 0.109375l-1.0625 0l0 7.78125q0 0.78125 -0.328125 1.40625q-0.21875 0.40625 -0.75 0.828125q-0.515625 0.4375 -0.9375 0.625q-0.421875 0.1875 -1.140625 0.1875l-2.203125 0q-0.28125 0 -0.40625 -0.109375q-0.125 -0.09375 -0.125 -0.28125q0 -0.171875 0.125 -0.28125q0.125 -0.109375 0.40625 -0.109375l2.234375 0q0.6875 0 1.234375 -0.359375q0.546875 -0.34375 0.921875 -1.015625q0.203125 -0.390625 0.203125 -1.0l0 -2.328125q-1.265625 1.71875 -3.234375 1.71875q-1.609375 0 -2.78125 -1.1875q-1.15625 -1.203125 -1.15625 -2.890625q0 -1.671875 1.15625 -2.859375q1.171875 -1.1875 2.78125 -1.1875q1.96875 0 3.234375 1.703125zm0 2.34375q0 -1.359375 -0.953125 -2.3125q-0.9375 -0.953125 -2.25 -0.953125q-1.296875 0 -2.234375 0.953125q-0.9375 0.953125 -0.9375 2.3125q0 1.375 0.9375 2.328125q0.9375 0.953125 2.234375 0.953125q1.3125 0 2.25 -0.953125q0.953125 -0.953125 0.953125 -2.328125z" fill-rule="nonzero"/><path fill="#649d66" d="m206.22441 57.38845l39.62204 0l0 39.622047l-39.62204 0z" fill-rule="evenodd"/><path stroke="#000000" stroke-width="1.0" stroke-linejoin="round" stroke-linecap="butt" d="m206.22441 57.38845l39.62204 0l0 39.622047l-39.62204 0z" fill-rule="evenodd"/><path fill="#ffffff" d="m229.44388 76.08823l0 0.6875l-5.828125 6.5625l5.265625 0l0 -1.078125q0 -0.28125 0.109375 -0.390625q0.109375 -0.125 0.28125 -0.125q0.171875 0 0.28125 0.125q0.109375 0.109375 0.109375 0.390625l0 1.859375l-7.125 0l0 -0.703125l5.796875 -6.546875l-4.84375 0l0 1.0625q0 0.28125 -0.109375 0.40625q-0.109375 0.109375 -0.265625 0.109375q-0.1875 0 -0.296875 -0.109375q-0.109375 -0.125 -0.109375 -0.40625l0 -1.84375l6.734375 0z" fill-rule="nonzero"/><path fill="#649d66" d="m47.73622 109.57743l39.622047 0l0 39.622047l-39.622047 0z" fill-rule="evenodd"/><path stroke="#000000" stroke-width="1.0" stroke-linejoin="round" stroke-linecap="butt" d="m47.73622 109.57743l39.622047 0l0 39.622047l-39.622047 0z" fill-rule="evenodd"/><path fill="#ffffff" d="m64.61194 128.2772l0 1.421875q0.6875 -0.84375 1.484375 -1.265625q0.8125 -0.43750763 1.890625 -0.43750763q1.15625 0 2.125 0.5468826q0.96875 0.53125 1.5 1.5q0.546875 0.953125 0.546875 2.0q0 1.6875 -1.203125 2.890625q-1.203125 1.1875 -2.953125 1.1875q-2.09375 0 -3.390625 -1.703125l0 4.6875l1.890625 0q0.28125 0 0.390625 0.109375q0.125 0.109375 0.125 0.28125q0 0.171875 -0.125 0.28125q-0.109375 0.109375 -0.390625 0.109375l-3.7187462 0q-0.28125 0 -0.40625 -0.109375q-0.109375 -0.09375 -0.109375 -0.28125q0 -0.171875 0.109375 -0.28125q0.125 -0.109375 0.40625 -0.109375l1.046875 0l0 -10.046875l-1.046875 0q-0.28125 0 -0.40625 -0.109375q-0.109375 -0.109375 -0.109375 -0.28125q0 -0.171875 0.109375 -0.28125q0.125 -0.109375 0.40625 -0.109375l1.8281212 0zm6.75 3.765625q0 -1.34375 -0.984375 -2.296875q-0.96875 -0.96875 -2.375 -0.96875q-1.421875 0 -2.40625 0.96875q-0.984375 0.96875 -0.984375 2.296875q0 1.359375 0.984375 2.328125q0.984375 0.953125 2.40625 0.953125q1.390625 0 2.375 -0.953125q0.984375 -0.96875 0.984375 -2.328125z" fill-rule="nonzero"/><path fill="#649d66" d="m87.35827 109.57743l39.622047 0l0 39.622047l-39.622047 0z" fill-rule="evenodd"/><path stroke="#000000" stroke-width="1.0" stroke-linejoin="round" stroke-linecap="butt" d="m87.35827 109.57743l39.622047 0l0 39.622047l-39.622047 0z" fill-rule="evenodd"/><path fill="#ffffff" d="m107.56211 124.66782l0 10.859383l3.0625 0q0.28125 0 0.40625 0.109375q0.125 0.109375 0.125 0.28125q0 0.171875 -0.125 0.28125q-0.125 0.109375 -0.40625 0.109375l-6.90625 0q-0.28125 0 -0.40625 -0.109375q-0.109375 -0.109375 -0.109375 -0.28125q0 -0.171875 0.109375 -0.28125q0.125 -0.109375 0.40625 -0.109375l3.0625 0l0 -10.078133l-2.234375 0q-0.28125 0 -0.40625 -0.109375q-0.125 -0.109375 -0.125 -0.28125q0 -0.171875 0.109375 -0.28125q0.125 -0.109375 0.421875 -0.109375l3.015625 0z" fill-rule="nonzero"/><path fill="#649d66" d="m126.980316 109.57743l39.62204 0l0 39.622047l-39.62204 0z" fill-rule="evenodd"/><path stroke="#000000" stroke-width="1.0" stroke-linejoin="round" stroke-linecap="butt" d="m126.980316 109.57743l39.62204 0l0 39.622047l-39.62204 0z" fill-rule="evenodd"/><path fill="#ffffff" d="m151.01228 132.48033l-7.953125 0q0.21875 1.515625 1.28125 2.4375q1.0625 0.921875 2.625 0.921875q0.875 0 1.828125 -0.28125q0.953125 -0.296875 1.5625 -0.765625q0.171875 -0.140625 0.296875 -0.140625q0.15625 0 0.265625 0.125q0.109375 0.109375 0.109375 0.265625q0 0.15625 -0.15625 0.296875q-0.4375 0.46875 -1.578125 0.875q-1.140625 0.40625 -2.328125 0.40625q-2.0 0 -3.34375 -1.3125q-1.34375 -1.3125 -1.34375 -3.1875q0 -1.6875 1.25 -2.90625q1.265625 -1.2187576 3.125 -1.2187576q1.90625 0 3.140625 1.2500076q1.234375 1.25 1.21875 3.234375zm-0.796875 -0.796875q-0.234375 -1.28125 -1.21875 -2.09375q-0.984375 -0.8125 -2.34375 -0.8125q-1.375 0 -2.359375 0.8125q-0.96875 0.796875 -1.21875 2.09375l7.140625 0z" fill-rule="nonzero"/><path fill="#649d66" d="m166.60236 109.57743l39.622055 0l0 39.622047l-39.622055 0z" fill-rule="evenodd"/><path stroke="#000000" stroke-width="1.0" stroke-linejoin="round" stroke-linecap="butt" d="m166.60236 109.57743l39.622055 0l0 39.622047l-39.622055 0z" fill-rule="evenodd"/><path fill="#ffffff" d="m186.80621 124.66782l0 10.859383l3.0625 0q0.28125 0 0.40625 0.109375q0.125 0.109375 0.125 0.28125q0 0.171875 -0.125 0.28125q-0.125 0.109375 -0.40625 0.109375l-6.90625 0q-0.28125 0 -0.40625 -0.109375q-0.109375 -0.109375 -0.109375 -0.28125q0 -0.171875 0.109375 -0.28125q0.125 -0.109375 0.40625 -0.109375l3.0625 0l0 -10.078133l-2.234375 0q-0.28125 0 -0.40625 -0.109375q-0.125 -0.109375 -0.125 -0.28125q0 -0.171875 0.109375 -0.28125q0.125 -0.109375 0.421875 -0.109375l3.015625 0z" fill-rule="nonzero"/><path fill="#649d66" d="m206.22441 109.57743l39.62204 0l0 39.622047l-39.62204 0z" fill-rule="evenodd"/><path stroke="#000000" stroke-width="1.0" stroke-linejoin="round" stroke-linecap="butt" d="m206.22441 109.57743l39.62204 0l0 39.622047l-39.62204 0z" fill-rule="evenodd"/><path fill="#ffffff" d="m230.25638 132.48033l-7.953125 0q0.21875 1.515625 1.28125 2.4375q1.0625 0.921875 2.625 0.921875q0.875 0 1.828125 -0.28125q0.953125 -0.296875 1.5625 -0.765625q0.171875 -0.140625 0.296875 -0.140625q0.15625 0 0.265625 0.125q0.109375 0.109375 0.109375 0.265625q0 0.15625 -0.15625 0.296875q-0.4375 0.46875 -1.578125 0.875q-1.140625 0.40625 -2.328125 0.40625q-2.0 0 -3.34375 -1.3125q-1.34375 -1.3125 -1.34375 -3.1875q0 -1.6875 1.25 -2.90625q1.265625 -1.2187576 3.125 -1.2187576q1.90625 0 3.140625 1.2500076q1.234375 1.25 1.21875 3.234375zm-0.796875 -0.796875q-0.234375 -1.28125 -1.21875 -2.09375q-0.984375 -0.8125 -2.34375 -0.8125q-1.375 0 -2.359375 0.8125q-0.96875 0.796875 -1.21875 2.09375l7.140625 0z" fill-rule="nonzero"/><path fill="#000000" fill-opacity="0.0" d="m4.97769 4.2545934l36.692913 0l0 39.622047l-36.692913 0z" fill-rule="evenodd"/><path fill="#000000" d="m25.69644 24.043116l0 2.4375q0 3.171875 -1.515625 5.015625q-1.171875 1.4687519 -2.984375 1.4687519q-0.859375 0 -1.640625 -0.359375q-0.765625 -0.34375 -1.296875 -0.9687519q-0.34375 -0.375 -0.75 -1.234375q-0.40625 -0.859375 -0.578125 -1.578125q-0.265625 -1.0 -0.265625 -2.34375l0 -2.4375q0 -3.1875 1.515625 -5.046875q1.171875 -1.453125 2.984375 -1.453125q0.875 0 1.640625 0.34375q0.765625 0.34375 1.296875 0.96875q0.359375 0.40625 0.75 1.265625q0.40625 0.84375 0.59375 1.546875q0.25 1.015625 0.25 2.375zm-0.984375 0.125q0 -1.390625 -0.390625 -2.59375q-0.390625 -1.203125 -0.890625 -1.921875q-0.28125 -0.40625 -0.75 -0.703125q-0.671875 -0.40625 -1.5 -0.40625q-1.65625 0 -2.59375 1.6875q-0.9375 1.6875 -0.9375 3.9375l0 2.171875q0 1.390625 0.390625 2.59375q0.390625 1.203125 0.890625 1.921875q0.28125 0.40625 0.75 0.6875q0.671875 0.421875 1.515625 0.421875q1.640625 0 2.578125 -1.6875q0.9375 -1.6875 0.9375 -3.9375l0 -2.171875z" fill-rule="nonzero"/><path fill="#000000" fill-opacity="0.0" d="m4.97769 57.38845l36.692913 0l0 39.622047l-36.692913 0z" fill-rule="evenodd"/><path fill="#000000" d="m21.66519 70.83322l0 13.921875l3.375 0q0.359375 0 0.5 0.140625q0.15625 0.125 0.15625 0.34375q0 0.21875 -0.15625 0.359375q-0.140625 0.140625 -0.5 0.140625l-7.734375 0q-0.34375 0 -0.5 -0.140625q-0.15625 -0.140625 -0.15625 -0.359375q0 -0.21875 0.15625 -0.34375q0.15625 -0.140625 0.5 -0.140625l3.375 0l0 -12.5625l-3.203125 1.0q-0.234375 0.078125 -0.34375 0.078125q-0.171875 0 -0.328125 -0.140625q-0.140625 -0.15625 -0.140625 -0.359375q0 -0.171875 0.109375 -0.328125q0.09375 -0.09375 0.390625 -0.1875l4.5 -1.421875z" fill-rule="nonzero"/><path fill="#000000" fill-opacity="0.0" d="m4.97769 109.57743l36.692913 0l0 39.622047l-36.692913 0z" fill-rule="evenodd"/><path fill="#000000" d="m16.94644 136.94408l7.5625 0l0 -0.390625q0 -0.34375 0.140625 -0.5q0.140625 -0.15625 0.359375 -0.15625q0.203125 0 0.34375 0.15625q0.140625 0.15625 0.140625 0.5l0 1.375l-9.515624 0l0 -1.453125q2.999999 -2.703125 5.843749 -5.484375q1.328125 -1.296875 1.8125 -1.90625q0.5 -0.609375 0.671875 -1.078125q0.1875 -0.46875 0.1875 -0.9375q0 -1.265625 -1.03125 -2.234375q-1.015625 -0.96875 -2.453125 -0.96875q-1.28125 0 -2.28125 0.734375q-1.0 0.734375 -1.296875 1.828125q-0.0625 0.28125 -0.171875 0.359375q-0.140625 0.125 -0.328125 0.125q-0.203125 0 -0.34375 -0.125q-0.125 -0.140625 -0.125 -0.328125q0 -0.5625 0.609375 -1.515625q0.625 -0.96875 1.703125 -1.515625q1.09375 -0.5625 2.21875 -0.5625q1.84375 0 3.171875 1.28125q1.328125 1.28125 1.328125 2.890625q0 0.6875 -0.234375 1.25q-0.21875 0.5625 -0.75 1.25q-0.53125 0.671875 -1.921875 2.03125q-3.46875 3.421875 -5.640625 5.296875l0 0.078125z" fill-rule="nonzero"/></g></svg>